<svg width="148" height="30" viewBox="0 0 148 30" fill="none" xmlns="http://www.w3.org/2000/svg">
<path d="M55.5742 8.88281C56.9605 8.88288 58.1675 9.19381 59.1836 9.82812L59.3701 9.94629C60.2898 10.5507 60.9957 11.3695 61.4854 12.3975L61.6748 12.8096C62.0872 13.7895 62.29 14.8938 62.29 16.1172C62.29 16.5137 62.1515 16.859 61.875 17.1357L61.8672 17.1436C61.5865 17.4027 61.2334 17.5253 60.8301 17.5254H51.3135C51.4148 17.9647 51.574 18.3736 51.7939 18.752L51.9541 19.0078C52.3439 19.5881 52.8517 20.0559 53.4805 20.4131L53.7529 20.5557C54.402 20.867 55.1365 21.0254 55.9619 21.0254C56.4646 21.0254 56.9792 20.9359 57.5059 20.7549C58.0574 20.5539 58.4873 20.333 58.8037 20.0957L58.8057 20.0938L58.9199 20.0156C59.1853 19.8483 59.4731 19.7596 59.7793 19.7568L59.918 19.7549C60.1918 19.7631 60.4425 19.8437 60.6631 19.9971L60.7705 20.0791L60.7754 20.083L60.8936 20.1963C61.1553 20.465 61.3126 20.7749 61.332 21.125L61.3311 21.2783C61.3048 21.6264 61.1184 21.9193 60.8154 22.1523L60.8164 22.1533C60.1998 22.643 59.4365 23.0368 58.5332 23.3379L58.5322 23.3369C57.646 23.638 56.7888 23.791 55.9619 23.791C54.4903 23.791 53.1678 23.4813 52.002 22.8535L51.998 22.8506C50.8531 22.2066 49.9464 21.328 49.2832 20.2168L49.2812 20.2119C48.634 19.0792 48.3135 17.7891 48.3135 16.3496C48.3135 14.8965 48.6148 13.6079 49.2266 12.4922L49.2275 12.4902L49.3477 12.2822C49.9629 11.2533 50.7847 10.4414 51.8115 9.85156L52.0195 9.73438C53.0684 9.16456 54.2559 8.88281 55.5742 8.88281ZM3.90918 2.92773C4.3573 2.92773 4.74614 3.08324 5.05762 3.39453C5.36916 3.70608 5.52539 4.09564 5.52539 4.54395V20.4561H14.6279C15.0762 20.4561 15.4658 20.6113 15.7773 20.9229L15.8867 21.0439C16.1251 21.3331 16.2441 21.6802 16.2441 22.0723C16.2441 22.4644 16.1252 22.8114 15.8867 23.1006L15.7773 23.2207C15.4658 23.5322 15.0762 23.6875 14.6279 23.6875H3.90918C3.461 23.6875 3.07224 23.5321 2.76074 23.2207L2.75391 23.2139C2.46225 22.9013 2.31942 22.5147 2.31934 22.0723V4.54395C2.31934 4.09564 2.47459 3.70608 2.78613 3.39453L2.90527 3.28613C3.19073 3.04878 3.52868 2.92776 3.90918 2.92773ZM45.6133 9.0625C45.9581 8.98808 46.3024 9.03324 46.6377 9.19043H46.6387C47.01 9.35548 47.2746 9.62408 47.4053 9.99414L47.4463 10.1309C47.5254 10.4494 47.4887 10.7688 47.3428 11.0791V11.0801L41.8545 22.6484L41.8555 22.6494C41.7119 22.9653 41.5215 23.2209 41.2754 23.3975C41.0267 23.5759 40.7372 23.6621 40.4189 23.6621C39.761 23.662 39.2651 23.299 38.9365 22.6611L38.9326 22.6533L33.4434 11.0801V11.0791C33.2779 10.7272 33.2512 10.3669 33.3828 10.0156L33.3857 10.0078L33.6357 10.1104L33.3867 10.0078C33.5353 9.64687 33.8088 9.37789 34.1826 9.19824L34.3164 9.13574C34.6288 9.00531 34.9517 8.99136 35.2734 9.10352H35.2744C35.6048 9.21363 35.8661 9.41539 36.0518 9.70117L36.127 9.8291L36.1299 9.83496L36.1328 9.8418L40.3887 19.0186L44.6016 9.84277L44.6045 9.83496L44.6084 9.8291C44.7956 9.47542 45.0826 9.22938 45.46 9.10352L45.4648 9.10254L45.6133 9.0625ZM55.5742 11.6484C54.6305 11.6484 53.8348 11.8556 53.1768 12.2568C52.5327 12.6601 52.0409 13.2149 51.7002 13.9287L51.6992 13.9307C51.549 14.2382 51.4336 14.5668 51.3486 14.915H59.3184C59.2367 14.4855 59.1075 14.0885 58.9297 13.7236L58.9287 13.7217C58.6207 13.0732 58.1864 12.5685 57.626 12.2002C57.0739 11.8374 56.3947 11.6485 55.5742 11.6484Z" fill="url(#paint0_linear_4241_3875)" stroke="url(#paint1_linear_4241_3875)" stroke-width="0.539397"/>
<path d="M27.642 8.54413C26.2267 8.54413 24.9739 9.38088 24.2255 10.6537C24.1632 10.744 24.1032 10.8364 24.0456 10.9307C23.9331 11.1149 23.6475 11.1085 23.5433 10.9195C21.1909 6.65612 16.0295 8.52174 15.8962 13.4966C15.7657 18.3647 20.5724 20.0107 22.9891 24.1401C23.2989 24.6695 24.2499 24.6613 24.5476 24.125C26.3276 20.9181 29.5095 19.0685 30.9525 16.3173C31.4764 15.5042 31.7878 14.4935 31.7878 13.3996C31.7879 12.7251 31.6671 12.058 31.4333 11.4414C31.4301 11.4311 31.4265 11.4212 31.4231 11.411C31.4223 11.4086 31.4211 11.4064 31.4203 11.4041C30.9902 10.0889 30.1084 9.22344 29.0699 8.84198L29.0656 8.84034C28.6096 8.64419 28.1277 8.54387 27.642 8.54413ZM27.642 9.56162C29.457 9.56162 30.9191 11.2739 30.9191 13.3996C30.9191 14.7413 30.3367 15.919 29.4505 16.6048C29.9274 15.5132 29.8505 13.9391 29.1542 12.5268C28.3494 10.8944 26.9693 9.99333 25.8044 10.2182C26.328 9.80344 26.9599 9.56162 27.642 9.56162Z" fill="url(#paint2_linear_4241_3875)"/>
<mask id="path-3-outside-1_4241_3875" maskUnits="userSpaceOnUse" x="64.5771" y="1.36133" width="52" height="23" fill="black">
<rect fill="white" x="64.5771" y="1.36133" width="52" height="23"/>
<path d="M75.2281 23.6202C73.83 23.6202 72.5182 23.3613 71.2927 22.8435C70.0844 22.3084 69.0229 21.5748 68.1081 20.6428C67.2105 19.6934 66.5028 18.5887 65.985 17.3287C65.4845 16.0687 65.2342 14.7051 65.2342 13.2379C65.2342 11.788 65.4845 10.4417 65.985 9.19891C66.5028 7.93888 67.2105 6.84282 68.1081 5.91074C69.0229 4.9614 70.0844 4.21919 71.2927 3.68411C72.5009 3.14903 73.8128 2.88149 75.2281 2.88149C76.5572 2.88149 77.6964 3.05409 78.6458 3.39931C79.6124 3.74452 80.579 4.31412 81.5456 5.10812C81.6836 5.21168 81.7872 5.32388 81.8562 5.4447C81.9426 5.54827 81.9943 5.66046 82.0116 5.78129C82.0461 5.88485 82.0634 6.01431 82.0634 6.16965C82.0634 6.49761 81.9426 6.77378 81.7009 6.99817C81.4765 7.2053 81.2003 7.32612 80.8724 7.36064C80.5444 7.3779 80.2251 7.26571 79.9144 7.02406C79.2758 6.47171 78.6112 6.04883 77.9208 5.7554C77.2476 5.46196 76.3501 5.31525 75.2281 5.31525C74.2098 5.31525 73.2518 5.52238 72.3542 5.93663C71.4567 6.35089 70.6627 6.92049 69.9722 7.64544C69.2991 8.37039 68.7726 9.21617 68.3929 10.1828C68.0132 11.1321 67.8233 12.1505 67.8233 13.2379C67.8233 14.3426 68.0132 15.3782 68.3929 16.3448C68.7726 17.2942 69.2991 18.1313 69.9722 18.8563C70.6627 19.5812 71.4567 20.1508 72.3542 20.5651C73.2518 20.9621 74.2098 21.1606 75.2281 21.1606C76.1084 21.1606 76.9369 21.0139 77.7137 20.7204C78.5077 20.4097 79.2671 19.9869 79.9921 19.4518C80.3028 19.2274 80.6048 19.1325 80.8983 19.167C81.209 19.1842 81.4679 19.3051 81.675 19.5294C81.8821 19.7366 81.9857 20.03 81.9857 20.4097C81.9857 20.5824 81.9512 20.755 81.8821 20.9276C81.8131 21.0829 81.7095 21.2296 81.5714 21.3677C80.6394 22.1099 79.6382 22.6709 78.5681 23.0506C77.5152 23.4304 76.4019 23.6202 75.2281 23.6202ZM90.9001 23.4649C89.6401 23.4649 88.5095 23.1542 87.5084 22.5328C86.5073 21.8942 85.7133 21.0398 85.1264 19.9696C84.5568 18.8822 84.272 17.6567 84.272 16.2931C84.272 14.9295 84.5827 13.704 85.2041 12.6165C85.8427 11.5291 86.6971 10.6747 87.7673 10.0533C88.8547 9.41467 90.0716 9.09534 91.4179 9.09534C92.7643 9.09534 93.9725 9.41467 95.0427 10.0533C96.1129 10.6747 96.9586 11.5291 97.58 12.6165C98.2187 13.704 98.538 14.9295 98.538 16.2931H97.5282C97.5282 17.6567 97.2348 18.8822 96.6479 19.9696C96.0783 21.0398 95.293 21.8942 94.2919 22.5328C93.2907 23.1542 92.1602 23.4649 90.9001 23.4649ZM91.4179 21.1347C92.2982 21.1347 93.0836 20.9276 93.774 20.5133C94.4645 20.0818 95.0082 19.5036 95.4052 18.7786C95.8022 18.0364 96.0007 17.2079 96.0007 16.2931C96.0007 15.361 95.8022 14.5325 95.4052 13.8075C95.0082 13.0653 94.4645 12.4871 93.774 12.0728C93.0836 11.6413 92.2982 11.4255 91.4179 11.4255C90.5549 11.4255 89.7695 11.6413 89.0619 12.0728C88.3714 12.4871 87.8191 13.0653 87.4048 13.8075C87.0078 14.5325 86.8093 15.361 86.8093 16.2931C86.8093 17.2079 87.0078 18.0364 87.4048 18.7786C87.8191 19.5036 88.3714 20.0818 89.0619 20.5133C89.7695 20.9276 90.5549 21.1347 91.4179 21.1347ZM97.2175 23.3872C96.8378 23.3872 96.5185 23.2664 96.2596 23.0247C96.0179 22.7658 95.8971 22.4465 95.8971 22.0668V18.1054L96.389 15.361L98.538 16.2931V22.0668C98.538 22.4465 98.4085 22.7658 98.1496 23.0247C97.908 23.2664 97.5973 23.3872 97.2175 23.3872ZM105.834 23.3613C105.075 23.3613 104.402 23.1542 103.815 22.7399C103.228 22.3257 102.77 21.7647 102.442 21.057C102.115 20.3321 101.951 19.5036 101.951 18.5715V4.43495C101.951 4.05521 102.071 3.74452 102.313 3.50287C102.555 3.26122 102.865 3.1404 103.245 3.1404C103.625 3.1404 103.936 3.26122 104.177 3.50287C104.419 3.74452 104.54 4.05521 104.54 4.43495V18.5715C104.54 19.2101 104.66 19.7366 104.902 20.1508C105.144 20.5651 105.454 20.7722 105.834 20.7722H106.481C106.827 20.7722 107.103 20.893 107.31 21.1347C107.534 21.3763 107.647 21.687 107.647 22.0668C107.647 22.4465 107.483 22.7572 107.155 22.9989C106.827 23.2405 106.404 23.3613 105.886 23.3613H105.834ZM113.596 23.3613C112.837 23.3613 112.164 23.1542 111.577 22.7399C110.99 22.3257 110.533 21.7647 110.205 21.057C109.877 20.3321 109.713 19.5036 109.713 18.5715V4.43495C109.713 4.05521 109.834 3.74452 110.075 3.50287C110.317 3.26122 110.628 3.1404 111.007 3.1404C111.387 3.1404 111.698 3.26122 111.939 3.50287C112.181 3.74452 112.302 4.05521 112.302 4.43495V18.5715C112.302 19.2101 112.423 19.7366 112.664 20.1508C112.906 20.5651 113.217 20.7722 113.596 20.7722H114.244C114.589 20.7722 114.865 20.893 115.072 21.1347C115.297 21.3763 115.409 21.687 115.409 22.0668C115.409 22.4465 115.245 22.7572 114.917 22.9989C114.589 23.2405 114.166 23.3613 113.648 23.3613H113.596Z"/>
</mask>
<path d="M75.2281 23.6202C73.83 23.6202 72.5182 23.3613 71.2927 22.8435C70.0844 22.3084 69.0229 21.5748 68.1081 20.6428C67.2105 19.6934 66.5028 18.5887 65.985 17.3287C65.4845 16.0687 65.2342 14.7051 65.2342 13.2379C65.2342 11.788 65.4845 10.4417 65.985 9.19891C66.5028 7.93888 67.2105 6.84282 68.1081 5.91074C69.0229 4.9614 70.0844 4.21919 71.2927 3.68411C72.5009 3.14903 73.8128 2.88149 75.2281 2.88149C76.5572 2.88149 77.6964 3.05409 78.6458 3.39931C79.6124 3.74452 80.579 4.31412 81.5456 5.10812C81.6836 5.21168 81.7872 5.32388 81.8562 5.4447C81.9426 5.54827 81.9943 5.66046 82.0116 5.78129C82.0461 5.88485 82.0634 6.01431 82.0634 6.16965C82.0634 6.49761 81.9426 6.77378 81.7009 6.99817C81.4765 7.2053 81.2003 7.32612 80.8724 7.36064C80.5444 7.3779 80.2251 7.26571 79.9144 7.02406C79.2758 6.47171 78.6112 6.04883 77.9208 5.7554C77.2476 5.46196 76.3501 5.31525 75.2281 5.31525C74.2098 5.31525 73.2518 5.52238 72.3542 5.93663C71.4567 6.35089 70.6627 6.92049 69.9722 7.64544C69.2991 8.37039 68.7726 9.21617 68.3929 10.1828C68.0132 11.1321 67.8233 12.1505 67.8233 13.2379C67.8233 14.3426 68.0132 15.3782 68.3929 16.3448C68.7726 17.2942 69.2991 18.1313 69.9722 18.8563C70.6627 19.5812 71.4567 20.1508 72.3542 20.5651C73.2518 20.9621 74.2098 21.1606 75.2281 21.1606C76.1084 21.1606 76.9369 21.0139 77.7137 20.7204C78.5077 20.4097 79.2671 19.9869 79.9921 19.4518C80.3028 19.2274 80.6048 19.1325 80.8983 19.167C81.209 19.1842 81.4679 19.3051 81.675 19.5294C81.8821 19.7366 81.9857 20.03 81.9857 20.4097C81.9857 20.5824 81.9512 20.755 81.8821 20.9276C81.8131 21.0829 81.7095 21.2296 81.5714 21.3677C80.6394 22.1099 79.6382 22.6709 78.5681 23.0506C77.5152 23.4304 76.4019 23.6202 75.2281 23.6202ZM90.9001 23.4649C89.6401 23.4649 88.5095 23.1542 87.5084 22.5328C86.5073 21.8942 85.7133 21.0398 85.1264 19.9696C84.5568 18.8822 84.272 17.6567 84.272 16.2931C84.272 14.9295 84.5827 13.704 85.2041 12.6165C85.8427 11.5291 86.6971 10.6747 87.7673 10.0533C88.8547 9.41467 90.0716 9.09534 91.4179 9.09534C92.7643 9.09534 93.9725 9.41467 95.0427 10.0533C96.1129 10.6747 96.9586 11.5291 97.58 12.6165C98.2187 13.704 98.538 14.9295 98.538 16.2931H97.5282C97.5282 17.6567 97.2348 18.8822 96.6479 19.9696C96.0783 21.0398 95.293 21.8942 94.2919 22.5328C93.2907 23.1542 92.1602 23.4649 90.9001 23.4649ZM91.4179 21.1347C92.2982 21.1347 93.0836 20.9276 93.774 20.5133C94.4645 20.0818 95.0082 19.5036 95.4052 18.7786C95.8022 18.0364 96.0007 17.2079 96.0007 16.2931C96.0007 15.361 95.8022 14.5325 95.4052 13.8075C95.0082 13.0653 94.4645 12.4871 93.774 12.0728C93.0836 11.6413 92.2982 11.4255 91.4179 11.4255C90.5549 11.4255 89.7695 11.6413 89.0619 12.0728C88.3714 12.4871 87.8191 13.0653 87.4048 13.8075C87.0078 14.5325 86.8093 15.361 86.8093 16.2931C86.8093 17.2079 87.0078 18.0364 87.4048 18.7786C87.8191 19.5036 88.3714 20.0818 89.0619 20.5133C89.7695 20.9276 90.5549 21.1347 91.4179 21.1347ZM97.2175 23.3872C96.8378 23.3872 96.5185 23.2664 96.2596 23.0247C96.0179 22.7658 95.8971 22.4465 95.8971 22.0668V18.1054L96.389 15.361L98.538 16.2931V22.0668C98.538 22.4465 98.4085 22.7658 98.1496 23.0247C97.908 23.2664 97.5973 23.3872 97.2175 23.3872ZM105.834 23.3613C105.075 23.3613 104.402 23.1542 103.815 22.7399C103.228 22.3257 102.77 21.7647 102.442 21.057C102.115 20.3321 101.951 19.5036 101.951 18.5715V4.43495C101.951 4.05521 102.071 3.74452 102.313 3.50287C102.555 3.26122 102.865 3.1404 103.245 3.1404C103.625 3.1404 103.936 3.26122 104.177 3.50287C104.419 3.74452 104.54 4.05521 104.54 4.43495V18.5715C104.54 19.2101 104.66 19.7366 104.902 20.1508C105.144 20.5651 105.454 20.7722 105.834 20.7722H106.481C106.827 20.7722 107.103 20.893 107.31 21.1347C107.534 21.3763 107.647 21.687 107.647 22.0668C107.647 22.4465 107.483 22.7572 107.155 22.9989C106.827 23.2405 106.404 23.3613 105.886 23.3613H105.834ZM113.596 23.3613C112.837 23.3613 112.164 23.1542 111.577 22.7399C110.99 22.3257 110.533 21.7647 110.205 21.057C109.877 20.3321 109.713 19.5036 109.713 18.5715V4.43495C109.713 4.05521 109.834 3.74452 110.075 3.50287C110.317 3.26122 110.628 3.1404 111.007 3.1404C111.387 3.1404 111.698 3.26122 111.939 3.50287C112.181 3.74452 112.302 4.05521 112.302 4.43495V18.5715C112.302 19.2101 112.423 19.7366 112.664 20.1508C112.906 20.5651 113.217 20.7722 113.596 20.7722H114.244C114.589 20.7722 114.865 20.893 115.072 21.1347C115.297 21.3763 115.409 21.687 115.409 22.0668C115.409 22.4465 115.245 22.7572 114.917 22.9989C114.589 23.2405 114.166 23.3613 113.648 23.3613H113.596Z" fill="white"/>
<path d="M71.2927 22.8435L71.0742 23.3368L71.0827 23.3404L71.2927 22.8435ZM68.1081 20.6428L67.7161 21.0134L67.7231 21.0206L68.1081 20.6428ZM65.985 17.3287L65.4837 17.5279L65.4861 17.5337L65.985 17.3287ZM65.985 9.19891L65.4861 8.99387L65.4847 8.99738L65.985 9.19891ZM68.1081 5.91074L67.7197 5.53646L67.7195 5.53659L68.1081 5.91074ZM71.2927 3.68411L71.0743 3.19091L71.0743 3.19091L71.2927 3.68411ZM78.6458 3.39931L78.4614 3.90624L78.4643 3.90728L78.6458 3.39931ZM81.5456 5.10812L81.2032 5.52492L81.2124 5.53249L81.2219 5.53964L81.5456 5.10812ZM81.8562 5.4447L81.3879 5.71232L81.4115 5.75354L81.4419 5.79002L81.8562 5.4447ZM82.0116 5.78129L81.4776 5.85757L81.4845 5.90572L81.4999 5.95186L82.0116 5.78129ZM81.7009 6.99817L82.0668 7.39452L82.0679 7.39343L81.7009 6.99817ZM80.8724 7.36064L80.9007 7.89929L80.9148 7.89855L80.9289 7.89708L80.8724 7.36064ZM79.9144 7.02406L79.5616 7.43204L79.5722 7.44122L79.5833 7.44983L79.9144 7.02406ZM77.9208 5.7554L77.7053 6.24988L77.7098 6.25182L77.9208 5.7554ZM69.9722 7.64544L69.5816 7.27342L69.577 7.27841L69.9722 7.64544ZM68.3929 10.1828L68.8937 10.3831L68.8949 10.38L68.3929 10.1828ZM68.3929 16.3448L67.8908 16.5421L67.8921 16.5452L68.3929 16.3448ZM69.9722 18.8563L69.5769 19.2233L69.5816 19.2283L69.9722 18.8563ZM72.3542 20.5651L72.1282 21.0549L72.136 21.0584L72.3542 20.5651ZM77.7137 20.7204L77.9043 21.2251L77.9102 21.2227L77.7137 20.7204ZM79.9921 19.4518L79.6763 19.0145L79.6718 19.0178L79.9921 19.4518ZM80.8983 19.167L80.8353 19.7027L80.8518 19.7046L80.8684 19.7055L80.8983 19.167ZM81.675 19.5294L81.2787 19.8953L81.286 19.9032L81.2936 19.9109L81.675 19.5294ZM81.8821 20.9276L82.375 21.1466L82.3792 21.1373L82.383 21.1279L81.8821 20.9276ZM81.5714 21.3677L81.9075 21.7897L81.9313 21.7707L81.9529 21.7491L81.5714 21.3677ZM78.5681 23.0506L78.3877 22.5423L78.3851 22.5432L78.5681 23.0506ZM75.2281 23.6202V23.0808C73.8984 23.0808 72.6584 22.835 71.5026 22.3466L71.2927 22.8435L71.0827 23.3404C72.378 23.8877 73.7616 24.1596 75.2281 24.1596V23.6202ZM71.2927 22.8435L71.5111 22.3503C70.3644 21.8425 69.3596 21.1478 68.493 20.2649L68.1081 20.6428L67.7231 21.0206C68.6862 22.0019 69.8045 22.7744 71.0743 23.3367L71.2927 22.8435ZM68.1081 20.6428L68.5 20.2722C67.6499 19.373 66.9777 18.3251 66.4839 17.1237L65.985 17.3287L65.4861 17.5337C66.028 18.8524 66.7711 20.0138 67.7161 21.0133L68.1081 20.6428ZM65.985 17.3287L66.4863 17.1296C66.0129 15.9379 65.7736 14.6425 65.7736 13.2379H65.2342H64.6948C64.6948 14.7676 64.956 16.1994 65.4837 17.5278L65.985 17.3287ZM65.2342 13.2379H65.7736C65.7736 11.8514 66.0126 10.5741 66.4854 9.40043L65.985 9.19891L65.4847 8.99738C64.9563 10.3093 64.6948 11.7247 64.6948 13.2379H65.2342ZM65.985 9.19891L66.4839 9.40394C66.9773 8.20336 67.6486 7.1655 68.4966 6.28489L68.1081 5.91074L67.7195 5.53659C66.7724 6.52014 66.0284 7.67439 65.4861 8.99388L65.985 9.19891ZM68.1081 5.91074L68.4965 6.28503C69.3628 5.38607 70.3665 4.68419 71.5111 4.17731L71.2927 3.68411L71.0743 3.19091C69.8024 3.75419 68.683 4.53673 67.7197 5.53646L68.1081 5.91074ZM71.2927 3.68411L71.5111 4.17731C72.6458 3.67481 73.8826 3.42088 75.2281 3.42088V2.88149V2.34209C73.743 2.34209 72.3561 2.62324 71.0743 3.19091L71.2927 3.68411ZM75.2281 2.88149V3.42088C76.5131 3.42088 77.5865 3.58808 78.4614 3.90623L78.6458 3.39931L78.8301 2.89238C77.8063 2.5201 76.6013 2.34209 75.2281 2.34209V2.88149ZM78.6458 3.39931L78.4643 3.90728C79.3612 4.2276 80.2744 4.76202 81.2032 5.52492L81.5456 5.10812L81.8879 4.69131C80.8835 3.86623 79.8635 3.26145 78.8272 2.89133L78.6458 3.39931ZM81.5456 5.10812L81.2219 5.53964C81.3148 5.60932 81.3631 5.66883 81.3879 5.71232L81.8562 5.4447L82.3246 5.17709C82.2113 4.97893 82.0525 4.81404 81.8692 4.6766L81.5456 5.10812ZM81.8562 5.4447L81.4419 5.79002C81.471 5.82502 81.476 5.84594 81.4776 5.85757L82.0116 5.78129L82.5456 5.70501C82.5127 5.47498 82.4141 5.27151 82.2706 5.09939L81.8562 5.4447ZM82.0116 5.78129L81.4999 5.95186C81.5101 5.98256 81.524 6.04985 81.524 6.16965H82.0634H82.6028C82.6028 5.97876 82.5821 5.78714 82.5233 5.61071L82.0116 5.78129ZM82.0634 6.16965H81.524C81.524 6.34667 81.4663 6.47993 81.3339 6.6029L81.7009 6.99817L82.0679 7.39343C82.4188 7.06763 82.6028 6.64854 82.6028 6.16965H82.0634ZM81.7009 6.99817L81.335 6.60182C81.203 6.72373 81.0381 6.80082 80.8159 6.82421L80.8724 7.36064L80.9289 7.89708C81.3626 7.85142 81.7501 7.68686 82.0668 7.39452L81.7009 6.99817ZM80.8724 7.36064L80.844 6.82199C80.6702 6.83114 80.4752 6.77688 80.2456 6.59828L79.9144 7.02406L79.5833 7.44983C79.975 7.75453 80.4187 7.92467 80.9007 7.89929L80.8724 7.36064ZM79.9144 7.02406L80.2673 6.61608C79.5915 6.0316 78.8798 5.57689 78.1318 5.25897L77.9208 5.7554L77.7098 6.25182C78.3426 6.52076 78.9601 6.91183 79.5616 7.43204L79.9144 7.02406ZM77.9208 5.7554L78.1363 5.26093C77.3689 4.92643 76.389 4.77585 75.2281 4.77585V5.31525V5.85464C76.3112 5.85464 77.1263 5.9975 77.7053 6.24986L77.9208 5.7554ZM75.2281 5.31525V4.77585C74.1341 4.77585 73.0988 4.99892 72.1282 5.44688L72.3542 5.93663L72.5803 6.42638C73.4048 6.04583 74.2854 5.85464 75.2281 5.85464V5.31525ZM72.3542 5.93663L72.1282 5.44688C71.168 5.89003 70.3184 6.49986 69.5816 7.27344L69.9722 7.64544L70.3628 8.01744C71.0069 7.34113 71.7453 6.81175 72.5803 6.42638L72.3542 5.93663ZM69.9722 7.64544L69.577 7.27841C68.8557 8.05522 68.294 8.95933 67.8908 9.98554L68.3929 10.1828L68.8949 10.38C69.2513 9.47301 69.7425 8.68557 70.3675 8.01248L69.9722 7.64544ZM68.3929 10.1828L67.8921 9.98244C67.4853 10.9995 67.2839 12.0863 67.2839 13.2379H67.8233H68.3627C68.3627 12.2147 68.541 11.2648 68.8937 10.3831L68.3929 10.1828ZM67.8233 13.2379H67.2839C67.2839 14.4058 67.4849 15.5087 67.8908 16.5421L68.3929 16.3448L68.8949 16.1476C68.5414 15.2478 68.3627 14.2794 68.3627 13.2379H67.8233ZM68.3929 16.3448L67.8921 16.5452C68.2956 17.554 68.8572 18.4481 69.577 19.2233L69.9722 18.8563L70.3675 18.4892C69.741 17.8145 69.2496 17.0344 68.8937 16.1445L68.3929 16.3448ZM69.9722 18.8563L69.5816 19.2283C70.3184 20.0019 71.168 20.6117 72.1282 21.0548L72.3542 20.5651L72.5803 20.0753C71.7453 19.69 71.0069 19.1606 70.3628 18.4843L69.9722 18.8563ZM72.3542 20.5651L72.136 21.0584C73.1049 21.4869 74.1375 21.7 75.2281 21.7V21.1606V20.6212C74.282 20.6212 73.3986 20.4372 72.5724 20.0718L72.3542 20.5651ZM75.2281 21.1606V21.7C76.1696 21.7 77.0631 21.5428 77.9043 21.225L77.7137 20.7204L77.5231 20.2158C76.8108 20.4849 76.0473 20.6212 75.2281 20.6212V21.1606ZM77.7137 20.7204L77.9102 21.2227C78.7507 20.8939 79.5515 20.4474 80.3124 19.8858L79.9921 19.4518L79.6718 19.0178C78.9827 19.5264 78.2646 19.9256 77.5171 20.2181L77.7137 20.7204ZM79.9921 19.4518L80.3079 19.8891C80.5426 19.7195 80.712 19.6882 80.8353 19.7027L80.8983 19.167L80.9613 18.6313C80.4977 18.5767 80.063 18.7352 79.6763 19.0145L79.9921 19.4518ZM80.8983 19.167L80.8684 19.7055C81.0421 19.7152 81.1686 19.7761 81.2787 19.8953L81.675 19.5294L82.0714 19.1636C81.7672 18.834 81.3759 18.6533 80.9282 18.6284L80.8983 19.167ZM81.675 19.5294L81.2936 19.9109C81.3721 19.9893 81.4463 20.1288 81.4463 20.4097H81.9857H82.5251C82.5251 19.9312 82.3922 19.4838 82.0564 19.148L81.675 19.5294ZM81.9857 20.4097H81.4463C81.4463 20.5086 81.4269 20.6134 81.3813 20.7272L81.8821 20.9276L82.383 21.1279C82.4755 20.8965 82.5251 20.6561 82.5251 20.4097H81.9857ZM81.8821 20.9276L81.3892 20.7085C81.3508 20.7951 81.2882 20.8882 81.19 20.9863L81.5714 21.3677L81.9529 21.7491C82.1309 21.5711 82.2754 21.3708 82.375 21.1466L81.8821 20.9276ZM81.5714 21.3677L81.2354 20.9458C80.3478 21.6526 79.3988 22.1835 78.3877 22.5423L78.5681 23.0506L78.7485 23.559C79.8777 23.1583 80.931 22.5673 81.9075 21.7897L81.5714 21.3677ZM78.5681 23.0506L78.3851 22.5432C77.3937 22.9008 76.3425 23.0808 75.2281 23.0808V23.6202V24.1596C76.4612 24.1596 77.6367 23.96 78.7511 23.558L78.5681 23.0506ZM87.5084 22.5328L87.2183 22.9876L87.2239 22.9911L87.5084 22.5328ZM85.1264 19.9696L84.6485 20.2199L84.6535 20.229L85.1264 19.9696ZM85.2041 12.6165L84.7389 12.3433L84.7358 12.3489L85.2041 12.6165ZM87.7673 10.0533L88.0382 10.5198L88.0405 10.5184L87.7673 10.0533ZM95.0427 10.0533L94.7663 10.5165L94.7718 10.5198L95.0427 10.0533ZM97.58 12.6165L97.1117 12.8842L97.1149 12.8897L97.58 12.6165ZM98.538 16.2931V16.8325H99.0774V16.2931H98.538ZM97.5282 16.2931V15.7537H96.9888V16.2931H97.5282ZM96.6479 19.9696L96.1733 19.7134L96.1718 19.7162L96.6479 19.9696ZM94.2919 22.5328L94.5763 22.9911L94.582 22.9876L94.2919 22.5328ZM93.774 20.5133L94.0516 20.9759L94.0599 20.9707L93.774 20.5133ZM95.4052 18.7786L95.8783 19.0377L95.8808 19.033L95.4052 18.7786ZM95.4052 13.8075L94.9295 14.0619L94.9321 14.0666L95.4052 13.8075ZM93.774 12.0728L93.4881 12.5303L93.4965 12.5353L93.774 12.0728ZM89.0619 12.0728L89.3394 12.5354L89.3427 12.5334L89.0619 12.0728ZM87.4048 13.8075L86.9338 13.5446L86.9317 13.5484L87.4048 13.8075ZM87.4048 18.7786L86.9292 19.033L86.9328 19.0397L86.9365 19.0462L87.4048 18.7786ZM89.0619 20.5133L88.776 20.9707L88.7826 20.9749L88.7894 20.9788L89.0619 20.5133ZM96.2596 23.0247L95.8652 23.3928L95.8779 23.4064L95.8915 23.4191L96.2596 23.0247ZM95.8971 18.1054L95.3662 18.0103L95.3577 18.0575V18.1054H95.8971ZM96.389 15.361L96.6037 14.8661L95.9784 14.5949L95.8581 15.2658L96.389 15.361ZM98.538 16.2931H99.0774V15.9391L98.7526 15.7982L98.538 16.2931ZM98.1496 23.0247L98.531 23.4062L98.531 23.4062L98.1496 23.0247ZM90.9001 23.4649V22.9255C89.7333 22.9255 88.7026 22.6392 87.7929 22.0745L87.5084 22.5328L87.2239 22.9911C88.3164 23.6692 89.5468 24.0043 90.9001 24.0043V23.4649ZM87.5084 22.5328L87.7985 22.0781C86.8759 21.4895 86.1439 20.7032 85.5994 19.7102L85.1264 19.9696L84.6535 20.229C85.2826 21.3763 86.1386 22.2988 87.2183 22.9876L87.5084 22.5328ZM85.1264 19.9696L85.6042 19.7193C85.0794 18.7174 84.8114 17.5793 84.8114 16.2931H84.272H83.7326C83.7326 17.734 84.0342 19.047 84.6486 20.2199L85.1264 19.9696ZM84.272 16.2931H84.8114C84.8114 15.0148 85.1017 13.8829 85.6724 12.8841L85.2041 12.6165L84.7358 12.3489C84.0637 13.525 83.7326 14.8442 83.7326 16.2931H84.272ZM85.2041 12.6165L85.6692 12.8897C86.2618 11.8808 87.0499 11.0936 88.0382 10.5198L87.7673 10.0533L87.4965 9.58685C86.3444 10.2558 85.4237 11.1775 84.739 12.3434L85.2041 12.6165ZM87.7673 10.0533L88.0405 10.5184C89.0395 9.93172 90.1609 9.63474 91.4179 9.63474V9.09534V8.55595C89.9823 8.55595 88.67 8.89761 87.4941 9.5882L87.7673 10.0533ZM91.4179 9.09534V9.63474C92.675 9.63474 93.7864 9.93172 94.7663 10.5165L95.0427 10.0533L95.3191 9.59013C94.1587 8.89761 92.8535 8.55595 91.4179 8.55595V9.09534ZM95.0427 10.0533L94.7718 10.5198C95.7588 11.0928 96.5369 11.8782 97.1117 12.8841L97.58 12.6165L98.0484 12.3489C97.3804 11.18 96.4669 10.2566 95.3135 9.58685L95.0427 10.0533ZM97.58 12.6165L97.1149 12.8897C97.701 13.8876 97.9986 15.0174 97.9986 16.2931H98.538H99.0774C99.0774 14.8415 98.7364 13.5203 98.0451 12.3434L97.58 12.6165ZM98.538 16.2931V15.7537H97.5282V16.2931V16.8325H98.538V16.2931ZM97.5282 16.2931H96.9888C96.9888 17.5767 96.7134 18.7126 96.1733 19.7134L96.6479 19.9696L97.1226 20.2258C97.7562 19.0517 98.0676 17.7366 98.0676 16.2931H97.5282ZM96.6479 19.9696L96.1718 19.7162C95.6449 20.7061 94.9229 21.4905 94.0018 22.0781L94.2919 22.5328L94.582 22.9876C95.6631 22.2979 96.5118 21.3734 97.1241 20.223L96.6479 19.9696ZM94.2919 22.5328L94.0074 22.0745C93.0977 22.6392 92.0669 22.9255 90.9001 22.9255V23.4649V24.0043C92.2534 24.0043 93.4838 23.6692 94.5763 22.9911L94.2919 22.5328ZM91.4179 21.1347V21.6741C92.3866 21.6741 93.2696 21.445 94.0516 20.9758L93.774 20.5133L93.4965 20.0508C92.8976 20.4101 92.2099 20.5953 91.4179 20.5953V21.1347ZM93.774 20.5133L94.0599 20.9707C94.8299 20.4894 95.4376 19.8424 95.8783 19.0377L95.4052 18.7786L94.9321 18.5195C94.5788 19.1647 94.099 19.6741 93.4882 20.0559L93.774 20.5133ZM95.4052 18.7786L95.8808 19.033C96.3232 18.2059 96.5401 17.2887 96.5401 16.2931H96.0007H95.4613C95.4613 17.127 95.2811 17.8669 94.9295 18.5242L95.4052 18.7786ZM96.0007 16.2931H96.5401C96.5401 15.2822 96.3241 14.3625 95.8783 13.5484L95.4052 13.8075L94.9321 14.0666C95.2803 14.7024 95.4613 15.4398 95.4613 16.2931H96.0007ZM95.4052 13.8075L95.8808 13.5531C95.44 12.729 94.8295 12.0771 94.0516 11.6103L93.774 12.0728L93.4965 12.5353C94.0994 12.8971 94.5764 13.4016 94.9295 14.0619L95.4052 13.8075ZM93.774 12.0728L94.0599 11.6154C93.2768 11.126 92.3908 10.8861 91.4179 10.8861V11.4255V11.9649C92.2057 11.9649 92.8904 12.1566 93.4882 12.5302L93.774 12.0728ZM91.4179 11.4255V10.8861C90.4601 10.8861 89.5769 11.127 88.781 11.6123L89.0619 12.0728L89.3427 12.5334C89.9622 12.1556 90.6497 11.9649 91.4179 11.9649V11.4255ZM89.0619 12.0728L88.7843 11.6103C88.0085 12.0758 87.3914 12.7249 86.9338 13.5446L87.4048 13.8075L87.8758 14.0704C88.2468 13.4057 88.7343 12.8984 89.3394 12.5353L89.0619 12.0728ZM87.4048 13.8075L86.9317 13.5484C86.4859 14.3625 86.2699 15.2822 86.2699 16.2931H86.8093H87.3487C87.3487 15.4398 87.5297 14.7024 87.8779 14.0666L87.4048 13.8075ZM86.8093 16.2931H86.2699C86.2699 17.2887 86.4868 18.2059 86.9292 19.033L87.4048 18.7786L87.8805 18.5242C87.5289 17.8669 87.3487 17.127 87.3487 16.2931H86.8093ZM87.4048 18.7786L86.9365 19.0462C87.3938 19.8465 88.008 20.4907 88.776 20.9707L89.0619 20.5133L89.3477 20.0559C88.7348 19.6728 88.2444 19.1606 87.8732 18.511L87.4048 18.7786ZM89.0619 20.5133L88.7894 20.9788C89.5841 21.444 90.4644 21.6741 91.4179 21.6741V21.1347V20.5953C90.6455 20.5953 89.955 20.4111 89.3343 20.0478L89.0619 20.5133ZM97.2175 23.3872V22.8478C96.9636 22.8478 96.779 22.7717 96.6276 22.6304L96.2596 23.0247L95.8915 23.4191C96.258 23.7611 96.712 23.9266 97.2175 23.9266V23.3872ZM96.2596 23.0247L96.6539 22.6567C96.5126 22.5053 96.4365 22.3207 96.4365 22.0668H95.8971H95.3577C95.3577 22.5723 95.5233 23.0264 95.8652 23.3928L96.2596 23.0247ZM95.8971 22.0668H96.4365V18.1054H95.8971H95.3577V22.0668H95.8971ZM95.8971 18.1054L96.428 18.2006L96.92 15.4562L96.389 15.361L95.8581 15.2658L95.3662 18.0103L95.8971 18.1054ZM96.389 15.361L96.1744 15.8558L98.3234 16.7879L98.538 16.2931L98.7526 15.7982L96.6037 14.8661L96.389 15.361ZM98.538 16.2931H97.9986V22.0668H98.538H99.0774V16.2931H98.538ZM98.538 22.0668H97.9986C97.9986 22.3094 97.9219 22.4897 97.7682 22.6433L98.1496 23.0247L98.531 23.4062C98.8952 23.042 99.0774 22.5836 99.0774 22.0668H98.538ZM98.1496 23.0247L97.7682 22.6433C97.6394 22.7721 97.4716 22.8478 97.2175 22.8478V23.3872V23.9266C97.7229 23.9266 98.1765 23.7606 98.531 23.4062L98.1496 23.0247ZM103.815 22.7399L103.504 23.1806L103.504 23.1806L103.815 22.7399ZM102.442 21.057L101.951 21.2794L101.953 21.2838L102.442 21.057ZM102.313 3.50287L102.694 3.88428L102.694 3.88428L102.313 3.50287ZM104.177 3.50287L103.796 3.88428L104.177 3.50287ZM104.902 20.1508L105.368 19.879L105.368 19.879L104.902 20.1508ZM107.31 21.1347L106.9 21.4857L106.907 21.4939L106.915 21.5017L107.31 21.1347ZM107.155 22.9989L107.475 23.4331L107.475 23.4331L107.155 22.9989ZM105.834 23.3613V22.8219C105.179 22.8219 104.616 22.6455 104.126 22.2993L103.815 22.7399L103.504 23.1806C104.187 23.6629 104.97 23.9007 105.834 23.9007V23.3613ZM103.815 22.7399L104.126 22.2993C103.623 21.9441 103.224 21.4598 102.932 20.8302L102.442 21.057L101.953 21.2838C102.317 22.0696 102.833 22.7073 103.504 23.1806L103.815 22.7399ZM102.442 21.057L102.934 20.8347C102.643 20.1906 102.49 19.4399 102.49 18.5715H101.951H101.411C101.411 19.5672 101.587 20.4736 101.951 21.2793L102.442 21.057ZM101.951 18.5715H102.49V4.43495H101.951H101.411V18.5715H101.951ZM101.951 4.43495H102.49C102.49 4.18085 102.566 4.01309 102.694 3.88428L102.313 3.50287L101.932 3.12146C101.577 3.47595 101.411 3.92958 101.411 4.43495H101.951ZM102.313 3.50287L102.694 3.88428C102.823 3.75548 102.991 3.67979 103.245 3.67979V3.1404V2.601C102.74 2.601 102.286 2.76697 101.932 3.12146L102.313 3.50287ZM103.245 3.1404V3.67979C103.499 3.67979 103.667 3.75548 103.796 3.88428L104.177 3.50287L104.559 3.12146C104.204 2.76697 103.75 2.601 103.245 2.601V3.1404ZM104.177 3.50287L103.796 3.88428C103.925 4.01309 104 4.18085 104 4.43495H104.54H105.079C105.079 3.92958 104.913 3.47595 104.559 3.12146L104.177 3.50287ZM104.54 4.43495H104V18.5715H104.54H105.079V4.43495H104.54ZM104.54 18.5715H104C104 19.275 104.133 19.9029 104.436 20.4226L104.902 20.1508L105.368 19.879C105.188 19.5703 105.079 19.1453 105.079 18.5715H104.54ZM104.902 20.1508L104.436 20.4226C104.745 20.9521 105.211 21.3116 105.834 21.3116V20.7722V20.2328C105.698 20.2328 105.542 20.1781 105.368 19.879L104.902 20.1508ZM105.834 20.7722V21.3116H106.481V20.7722V20.2328H105.834V20.7722ZM106.481 20.7722V21.3116C106.684 21.3116 106.805 21.3746 106.9 21.4857L107.31 21.1347L107.72 20.7837C107.401 20.4115 106.969 20.2328 106.481 20.2328V20.7722ZM107.31 21.1347L106.915 21.5017C107.032 21.6285 107.107 21.8011 107.107 22.0668H107.647H108.186C108.186 21.573 108.036 21.1242 107.705 20.7677L107.31 21.1347ZM107.647 22.0668H107.107C107.107 22.2611 107.036 22.416 106.835 22.5646L107.155 22.9989L107.475 23.4331C107.929 23.0984 108.186 22.6319 108.186 22.0668H107.647ZM107.155 22.9989L106.835 22.5646C106.622 22.7214 106.32 22.8219 105.886 22.8219V23.3613V23.9007C106.488 23.9007 107.032 23.7596 107.475 23.4331L107.155 22.9989ZM105.886 23.3613V22.8219H105.834V23.3613V23.9007H105.886V23.3613ZM111.577 22.7399L111.266 23.1806L111.266 23.1806L111.577 22.7399ZM110.205 21.057L109.713 21.2794L109.715 21.2838L110.205 21.057ZM110.075 3.50287L110.457 3.88428L110.457 3.88428L110.075 3.50287ZM111.939 3.50287L111.558 3.88428L111.939 3.50287ZM112.664 20.1508L113.13 19.879L113.13 19.879L112.664 20.1508ZM115.072 21.1347L114.663 21.4857L114.67 21.4939L114.677 21.5017L115.072 21.1347ZM114.917 22.9989L115.237 23.4331L115.237 23.4331L114.917 22.9989ZM113.596 23.3613V22.8219C112.942 22.8219 112.379 22.6455 111.888 22.2993L111.577 22.7399L111.266 23.1806C111.949 23.6629 112.732 23.9007 113.596 23.9007V23.3613ZM111.577 22.7399L111.888 22.2993C111.385 21.9441 110.986 21.4598 110.694 20.8302L110.205 21.057L109.715 21.2838C110.079 22.0696 110.595 22.7073 111.266 23.1806L111.577 22.7399ZM110.205 21.057L110.696 20.8347C110.405 20.1906 110.252 19.4399 110.252 18.5715H109.713H109.173C109.173 19.5672 109.349 20.4736 109.713 21.2793L110.205 21.057ZM109.713 18.5715H110.252V4.43495H109.713H109.173V18.5715H109.713ZM109.713 4.43495H110.252C110.252 4.18085 110.328 4.01309 110.457 3.88428L110.075 3.50287L109.694 3.12146C109.339 3.47595 109.173 3.92958 109.173 4.43495H109.713ZM110.075 3.50287L110.457 3.88428C110.586 3.75548 110.753 3.67979 111.007 3.67979V3.1404V2.601C110.502 2.601 110.048 2.76697 109.694 3.12146L110.075 3.50287ZM111.007 3.1404V3.67979C111.261 3.67979 111.429 3.75548 111.558 3.88428L111.939 3.50287L112.321 3.12146C111.966 2.76697 111.513 2.601 111.007 2.601V3.1404ZM111.939 3.50287L111.558 3.88428C111.687 4.01309 111.763 4.18085 111.763 4.43495H112.302H112.841C112.841 3.92958 112.675 3.47595 112.321 3.12146L111.939 3.50287ZM112.302 4.43495H111.763V18.5715H112.302H112.841V4.43495H112.302ZM112.302 18.5715H111.763C111.763 19.275 111.895 19.9029 112.198 20.4226L112.664 20.1508L113.13 19.879C112.95 19.5703 112.841 19.1453 112.841 18.5715H112.302ZM112.664 20.1508L112.198 20.4226C112.507 20.9521 112.973 21.3116 113.596 21.3116V20.7722V20.2328C113.461 20.2328 113.305 20.1781 113.13 19.879L112.664 20.1508ZM113.596 20.7722V21.3116H114.244V20.7722V20.2328H113.596V20.7722ZM114.244 20.7722V21.3116C114.447 21.3116 114.568 21.3746 114.663 21.4857L115.072 21.1347L115.482 20.7837C115.163 20.4115 114.731 20.2328 114.244 20.2328V20.7722ZM115.072 21.1347L114.677 21.5017C114.795 21.6285 114.869 21.8011 114.869 22.0668H115.409H115.948C115.948 21.573 115.799 21.1242 115.468 20.7677L115.072 21.1347ZM115.409 22.0668H114.869C114.869 22.2611 114.799 22.416 114.597 22.5646L114.917 22.9989L115.237 23.4331C115.691 23.0984 115.948 22.6319 115.948 22.0668H115.409ZM114.917 22.9989L114.597 22.5646C114.384 22.7214 114.082 22.8219 113.648 22.8219V23.3613V23.9007C114.25 23.9007 114.794 23.7596 115.237 23.4331L114.917 22.9989ZM113.648 23.3613V22.8219H113.596V23.3613V23.9007H113.648V23.3613Z" fill="white" mask="url(#path-3-outside-1_4241_3875)"/>
<mask id="path-5-outside-2_4241_3875" maskUnits="userSpaceOnUse" x="116.577" y="2.36133" width="31" height="22" fill="black">
<rect fill="white" x="116.577" y="2.36133" width="31" height="22"/>
<path d="M119.658 23.7756C119.175 23.7756 118.752 23.603 118.39 23.2578C118.044 22.8953 117.872 22.4724 117.872 21.9891C117.872 21.4885 118.044 21.0657 118.39 20.7204C118.752 20.358 119.175 20.1767 119.658 20.1767C120.159 20.1767 120.582 20.358 120.927 20.7204C121.272 21.0657 121.445 21.4885 121.445 21.9891C121.445 22.4724 121.272 22.8953 120.927 23.2578C120.582 23.603 120.159 23.7756 119.658 23.7756ZM126.656 23.3613C126.276 23.3613 125.957 23.2405 125.698 22.9989C125.456 22.7399 125.336 22.4206 125.336 22.0409V10.5194C125.336 10.1224 125.456 9.80303 125.698 9.56138C125.957 9.31973 126.276 9.19891 126.656 9.19891C127.053 9.19891 127.372 9.31973 127.614 9.56138C127.856 9.80303 127.977 10.1224 127.977 10.5194V22.0409C127.977 22.4206 127.856 22.7399 127.614 22.9989C127.372 23.2405 127.053 23.3613 126.656 23.3613ZM126.656 6.8946C126.19 6.8946 125.784 6.73063 125.439 6.40267C125.111 6.05746 124.947 5.65183 124.947 5.18579C124.947 4.71975 125.111 4.32276 125.439 3.9948C125.784 3.64959 126.19 3.47698 126.656 3.47698C127.122 3.47698 127.519 3.64959 127.847 3.9948C128.192 4.32276 128.365 4.71975 128.365 5.18579C128.365 5.65183 128.192 6.05746 127.847 6.40267C127.519 6.73063 127.122 6.8946 126.656 6.8946ZM139.311 23.4649C137.912 23.4649 136.678 23.1628 135.608 22.5587C134.538 21.9373 133.692 21.0915 133.071 20.0214C132.467 18.934 132.165 17.6912 132.165 16.2931C132.165 14.8777 132.467 13.6349 133.071 12.5647C133.692 11.4773 134.538 10.6315 135.608 10.0274C136.678 9.40604 137.912 9.09534 139.311 9.09534C140.691 9.09534 141.917 9.40604 142.987 10.0274C144.057 10.6315 144.894 11.4773 145.498 12.5647C146.12 13.6349 146.431 14.8777 146.431 16.2931C146.431 17.6912 146.129 18.934 145.524 20.0214C144.92 21.0915 144.083 21.9373 143.013 22.5587C141.943 23.1628 140.709 23.4649 139.311 23.4649ZM139.311 21.1347C140.208 21.1347 141.002 20.9276 141.693 20.5133C142.383 20.0991 142.918 19.5294 143.298 18.8045C143.695 18.0795 143.893 17.2424 143.893 16.2931C143.893 15.3437 143.695 14.5066 143.298 13.7816C142.918 13.0394 142.383 12.4612 141.693 12.0469C141.002 11.6327 140.208 11.4255 139.311 11.4255C138.413 11.4255 137.619 11.6327 136.929 12.0469C136.238 12.4612 135.694 13.0394 135.297 13.7816C134.9 14.5066 134.702 15.3437 134.702 16.2931C134.702 17.2424 134.9 18.0795 135.297 18.8045C135.694 19.5294 136.238 20.0991 136.929 20.5133C137.619 20.9276 138.413 21.1347 139.311 21.1347Z"/>
</mask>
<path d="M119.658 23.7756C119.175 23.7756 118.752 23.603 118.39 23.2578C118.044 22.8953 117.872 22.4724 117.872 21.9891C117.872 21.4885 118.044 21.0657 118.39 20.7204C118.752 20.358 119.175 20.1767 119.658 20.1767C120.159 20.1767 120.582 20.358 120.927 20.7204C121.272 21.0657 121.445 21.4885 121.445 21.9891C121.445 22.4724 121.272 22.8953 120.927 23.2578C120.582 23.603 120.159 23.7756 119.658 23.7756ZM126.656 23.3613C126.276 23.3613 125.957 23.2405 125.698 22.9989C125.456 22.7399 125.336 22.4206 125.336 22.0409V10.5194C125.336 10.1224 125.456 9.80303 125.698 9.56138C125.957 9.31973 126.276 9.19891 126.656 9.19891C127.053 9.19891 127.372 9.31973 127.614 9.56138C127.856 9.80303 127.977 10.1224 127.977 10.5194V22.0409C127.977 22.4206 127.856 22.7399 127.614 22.9989C127.372 23.2405 127.053 23.3613 126.656 23.3613ZM126.656 6.8946C126.19 6.8946 125.784 6.73063 125.439 6.40267C125.111 6.05746 124.947 5.65183 124.947 5.18579C124.947 4.71975 125.111 4.32276 125.439 3.9948C125.784 3.64959 126.19 3.47698 126.656 3.47698C127.122 3.47698 127.519 3.64959 127.847 3.9948C128.192 4.32276 128.365 4.71975 128.365 5.18579C128.365 5.65183 128.192 6.05746 127.847 6.40267C127.519 6.73063 127.122 6.8946 126.656 6.8946ZM139.311 23.4649C137.912 23.4649 136.678 23.1628 135.608 22.5587C134.538 21.9373 133.692 21.0915 133.071 20.0214C132.467 18.934 132.165 17.6912 132.165 16.2931C132.165 14.8777 132.467 13.6349 133.071 12.5647C133.692 11.4773 134.538 10.6315 135.608 10.0274C136.678 9.40604 137.912 9.09534 139.311 9.09534C140.691 9.09534 141.917 9.40604 142.987 10.0274C144.057 10.6315 144.894 11.4773 145.498 12.5647C146.12 13.6349 146.431 14.8777 146.431 16.2931C146.431 17.6912 146.129 18.934 145.524 20.0214C144.92 21.0915 144.083 21.9373 143.013 22.5587C141.943 23.1628 140.709 23.4649 139.311 23.4649ZM139.311 21.1347C140.208 21.1347 141.002 20.9276 141.693 20.5133C142.383 20.0991 142.918 19.5294 143.298 18.8045C143.695 18.0795 143.893 17.2424 143.893 16.2931C143.893 15.3437 143.695 14.5066 143.298 13.7816C142.918 13.0394 142.383 12.4612 141.693 12.0469C141.002 11.6327 140.208 11.4255 139.311 11.4255C138.413 11.4255 137.619 11.6327 136.929 12.0469C136.238 12.4612 135.694 13.0394 135.297 13.7816C134.9 14.5066 134.702 15.3437 134.702 16.2931C134.702 17.2424 134.9 18.0795 135.297 18.8045C135.694 19.5294 136.238 20.0991 136.929 20.5133C137.619 20.9276 138.413 21.1347 139.311 21.1347Z" fill="white"/>
<path d="M118.39 23.2578L117.999 23.6298L118.008 23.6393L118.018 23.6484L118.39 23.2578ZM118.39 20.7204L118.008 20.339L118.008 20.339L118.39 20.7204ZM120.927 20.7204L120.536 21.0925L120.545 21.1018L120.927 20.7204ZM120.927 23.2578L121.308 23.6393L121.317 23.6298L120.927 23.2578ZM119.658 23.7756V23.2362C119.319 23.2362 119.028 23.1206 118.762 22.8672L118.39 23.2578L118.018 23.6484C118.476 24.0853 119.031 24.315 119.658 24.315V23.7756ZM118.39 23.2578L118.78 22.8858C118.527 22.6196 118.411 22.3285 118.411 21.9891H117.872H117.332C117.332 22.6163 117.562 23.171 117.999 23.6298L118.39 23.2578ZM117.872 21.9891H118.411C118.411 21.6275 118.53 21.3431 118.771 21.1018L118.39 20.7204L118.008 20.339C117.559 20.7882 117.332 21.3495 117.332 21.9891H117.872ZM118.39 20.7204L118.771 21.1018C119.039 20.8337 119.327 20.7161 119.658 20.7161V20.1767V19.6373C119.022 19.6373 118.465 19.8822 118.008 20.339L118.39 20.7204ZM119.658 20.1767V20.7161C120.011 20.7161 120.293 20.8369 120.536 21.0924L120.927 20.7204L121.317 20.3484C120.87 19.8791 120.306 19.6373 119.658 19.6373V20.1767ZM120.927 20.7204L120.545 21.1018C120.787 21.3431 120.905 21.6275 120.905 21.9891H121.445H121.984C121.984 21.3495 121.757 20.7882 121.308 20.339L120.927 20.7204ZM121.445 21.9891H120.905C120.905 22.3285 120.79 22.6196 120.536 22.8858L120.927 23.2578L121.317 23.6298C121.754 23.171 121.984 22.6163 121.984 21.9891H121.445ZM120.927 23.2578L120.545 22.8764C120.304 23.1176 120.02 23.2362 119.658 23.2362V23.7756V24.315C120.298 24.315 120.859 24.0884 121.308 23.6392L120.927 23.2578ZM125.698 22.9989L125.304 23.3669L125.316 23.3805L125.33 23.3932L125.698 22.9989ZM125.698 9.56138L125.33 9.16705L125.323 9.1734L125.317 9.17997L125.698 9.56138ZM127.614 22.9989L127.995 23.3803L128.002 23.3737L128.008 23.3669L127.614 22.9989ZM125.439 6.40267L125.048 6.77418L125.058 6.78421L125.068 6.79373L125.439 6.40267ZM125.439 3.9948L125.058 3.61339L125.058 3.61339L125.439 3.9948ZM127.847 3.9948L127.456 4.36631L127.466 4.37634L127.476 4.38586L127.847 3.9948ZM127.847 6.40267L128.228 6.78408L127.847 6.40267ZM126.656 23.3613V22.8219C126.402 22.8219 126.218 22.7458 126.066 22.6045L125.698 22.9989L125.33 23.3932C125.696 23.7352 126.151 23.9007 126.656 23.9007V23.3613ZM125.698 22.9989L126.092 22.6308C125.951 22.4794 125.875 22.2948 125.875 22.0409H125.336H124.796C124.796 22.5464 124.962 23.0005 125.304 23.3669L125.698 22.9989ZM125.336 22.0409H125.875V10.5194H125.336H124.796V22.0409H125.336ZM125.336 10.5194H125.875C125.875 10.2404 125.955 10.0669 126.08 9.94279L125.698 9.56138L125.317 9.17997C124.957 9.53919 124.796 10.0043 124.796 10.5194H125.336ZM125.698 9.56138L126.066 9.95571C126.218 9.8144 126.402 9.73831 126.656 9.73831V9.19891V8.65951C126.151 8.65951 125.696 8.82506 125.33 9.16705L125.698 9.56138ZM126.656 9.19891V9.73831C126.935 9.73831 127.109 9.81871 127.233 9.94279L127.614 9.56138L127.995 9.17997C127.636 8.82076 127.171 8.65951 126.656 8.65951V9.19891ZM127.614 9.56138L127.233 9.94279C127.357 10.0669 127.437 10.2404 127.437 10.5194H127.977H128.516C128.516 10.0043 128.355 9.53919 127.995 9.17997L127.614 9.56138ZM127.977 10.5194H127.437V22.0409H127.977H128.516V10.5194H127.977ZM127.977 22.0409H127.437C127.437 22.2948 127.361 22.4794 127.22 22.6308L127.614 22.9989L128.008 23.3669C128.35 23.0005 128.516 22.5464 128.516 22.0409H127.977ZM127.614 22.9989L127.233 22.6174C127.109 22.7415 126.935 22.8219 126.656 22.8219V23.3613V23.9007C127.171 23.9007 127.636 23.7395 127.995 23.3803L127.614 22.9989ZM126.656 6.8946V6.3552C126.332 6.3552 126.058 6.24663 125.811 6.01161L125.439 6.40267L125.068 6.79373C125.511 7.21462 126.048 7.434 126.656 7.434V6.8946ZM125.439 6.40267L125.83 6.03116C125.595 5.78377 125.487 5.51026 125.487 5.18579H124.947H124.408C124.408 5.79341 124.627 6.33114 125.048 6.77418L125.439 6.40267ZM124.947 5.18579H125.487C125.487 4.86203 125.594 4.60246 125.821 4.37621L125.439 3.9948L125.058 3.61339C124.628 4.04305 124.408 4.57747 124.408 5.18579H124.947ZM125.439 3.9948L125.821 4.37621C126.07 4.1268 126.34 4.01638 126.656 4.01638V3.47698V2.93758C126.04 2.93758 125.499 3.17238 125.058 3.61339L125.439 3.9948ZM126.656 3.47698V4.01638C126.971 4.01638 127.227 4.12566 127.456 4.36631L127.847 3.9948L128.238 3.62329C127.811 3.17351 127.274 2.93758 126.656 2.93758V3.47698ZM127.847 3.9948L127.476 4.38586C127.716 4.61448 127.825 4.8712 127.825 5.18579H128.365H128.904C128.904 4.56831 128.668 4.03103 128.219 3.60374L127.847 3.9948ZM128.365 5.18579H127.825C127.825 5.50137 127.715 5.77185 127.466 6.02126L127.847 6.40267L128.228 6.78408C128.669 6.34307 128.904 5.80229 128.904 5.18579H128.365ZM127.847 6.40267L127.466 6.02126C127.239 6.24751 126.98 6.3552 126.656 6.3552V6.8946V7.434C127.264 7.434 127.799 7.21374 128.228 6.78408L127.847 6.40267ZM135.608 22.5587L135.337 23.0252L135.343 23.0284L135.608 22.5587ZM133.071 20.0214L132.599 20.2834L132.604 20.2922L133.071 20.0214ZM133.071 12.5647L132.602 12.2971L132.601 12.2996L133.071 12.5647ZM135.608 10.0274L135.873 10.4972L135.879 10.4939L135.608 10.0274ZM142.987 10.0274L142.716 10.4939L142.722 10.4971L142.987 10.0274ZM145.498 12.5647L145.027 12.8267L145.032 12.8356L145.498 12.5647ZM145.524 20.0214L145.994 20.2865L145.996 20.2833L145.524 20.0214ZM143.013 22.5587L143.278 23.0285L143.284 23.0252L143.013 22.5587ZM141.693 20.5133L141.415 20.0508L141.415 20.0508L141.693 20.5133ZM143.298 18.8045L142.825 18.5454L142.82 18.5542L143.298 18.8045ZM143.298 13.7816L142.818 14.0273L142.821 14.0341L142.825 14.0407L143.298 13.7816ZM141.693 12.0469L141.415 12.5095L141.415 12.5095L141.693 12.0469ZM136.929 12.0469L137.206 12.5095L137.206 12.5095L136.929 12.0469ZM135.297 13.7816L135.771 14.0407L135.773 14.036L135.297 13.7816ZM135.297 18.8045L135.771 18.5454L135.771 18.5454L135.297 18.8045ZM136.929 20.5133L136.651 20.9758L136.651 20.9758L136.929 20.5133ZM139.311 23.4649V22.9255C137.992 22.9255 136.852 22.6414 135.873 22.089L135.608 22.5587L135.343 23.0284C136.505 23.6842 137.832 24.0043 139.311 24.0043V23.4649ZM135.608 22.5587L135.879 22.0922C134.89 21.5179 134.112 20.7396 133.537 19.7505L133.071 20.0214L132.604 20.2922C133.273 21.4435 134.186 22.3567 135.337 23.0252L135.608 22.5587ZM133.071 20.0214L133.542 19.7594C132.988 18.7617 132.704 17.6111 132.704 16.2931H132.165H131.625C131.625 17.7713 131.945 19.1062 132.599 20.2833L133.071 20.0214ZM132.165 16.2931H132.704C132.704 14.9563 132.989 13.8076 133.54 12.8299L133.071 12.5647L132.601 12.2996C131.945 13.4622 131.625 14.799 131.625 16.2931H132.165ZM133.071 12.5647L133.539 12.8324C134.113 11.8277 134.889 11.0525 135.873 10.4971L135.608 10.0274L135.343 9.5577C134.186 10.2106 133.271 11.127 132.602 12.2971L133.071 12.5647ZM135.608 10.0274L135.879 10.4939C136.857 9.92622 137.995 9.63474 139.311 9.63474V9.09534V8.55595C137.83 8.55595 136.5 8.88585 135.337 9.56096L135.608 10.0274ZM139.311 9.09534V9.63474C140.608 9.63474 141.738 9.92564 142.716 10.4939L142.987 10.0274L143.258 9.56096C142.096 8.88644 140.775 8.55595 139.311 8.55595V9.09534ZM142.987 10.0274L142.722 10.4971C143.704 11.0517 144.471 11.8251 145.027 12.8267L145.498 12.5647L145.97 12.3028C145.318 11.1295 144.41 10.2114 143.252 9.5577L142.987 10.0274ZM145.498 12.5647L145.032 12.8356C145.599 13.8123 145.891 14.9589 145.891 16.2931H146.431H146.97C146.97 14.7964 146.641 13.4576 145.965 12.2939L145.498 12.5647ZM146.431 16.2931H145.891C145.891 17.6111 145.607 18.7617 145.053 19.7594L145.524 20.0214L145.996 20.2833C146.65 19.1062 146.97 17.7713 146.97 16.2931H146.431ZM145.524 20.0214L145.055 19.7562C144.498 20.7422 143.73 21.5187 142.742 22.0922L143.013 22.5587L143.284 23.0252C144.436 22.3559 145.342 21.4409 145.994 20.2865L145.524 20.0214ZM143.013 22.5587L142.748 22.089C141.769 22.6414 140.629 22.9255 139.311 22.9255V23.4649V24.0043C140.789 24.0043 142.116 23.6842 143.278 23.0284L143.013 22.5587ZM139.311 21.1347V21.6741C140.294 21.6741 141.186 21.446 141.97 20.9758L141.693 20.5133L141.415 20.0508C140.818 20.4091 140.122 20.5953 139.311 20.5953V21.1347ZM141.693 20.5133L141.97 20.9758C142.747 20.5097 143.351 19.866 143.776 19.0548L143.298 18.8045L142.82 18.5542C142.485 19.1929 142.019 19.6884 141.415 20.0508L141.693 20.5133ZM143.298 18.8045L143.771 19.0636C144.217 18.2481 144.433 17.3194 144.433 16.2931H143.893H143.354C143.354 17.1654 143.172 17.911 142.825 18.5454L143.298 18.8045ZM143.893 16.2931H144.433C144.433 15.2668 144.217 14.338 143.771 13.5225L143.298 13.7816L142.825 14.0407C143.172 14.6751 143.354 15.4207 143.354 16.2931H143.893ZM143.298 13.7816L143.778 13.5359C143.354 12.7073 142.75 12.0525 141.97 11.5844L141.693 12.0469L141.415 12.5095C142.016 12.8699 142.482 13.3716 142.818 14.0273L143.298 13.7816ZM141.693 12.0469L141.97 11.5844C141.186 11.1142 140.294 10.8861 139.311 10.8861V11.4255V11.9649C140.122 11.9649 140.818 12.1511 141.415 12.5095L141.693 12.0469ZM139.311 11.4255V10.8861C138.327 10.8861 137.435 11.1142 136.651 11.5844L136.929 12.0469L137.206 12.5095C137.803 12.1511 138.499 11.9649 139.311 11.9649V11.4255ZM136.929 12.0469L136.651 11.5844C135.873 12.0512 135.263 12.7031 134.822 13.5272L135.297 13.7816L135.773 14.036C136.126 13.3758 136.603 12.8712 137.206 12.5095L136.929 12.0469ZM135.297 13.7816L134.824 13.5225C134.378 14.338 134.163 15.2668 134.163 16.2931H134.702H135.241C135.241 15.4207 135.423 14.6751 135.771 14.0407L135.297 13.7816ZM134.702 16.2931H134.163C134.163 17.3194 134.378 18.2481 134.824 19.0636L135.297 18.8045L135.771 18.5454C135.423 17.911 135.241 17.1654 135.241 16.2931H134.702ZM135.297 18.8045L134.824 19.0636C135.266 19.8702 135.876 20.511 136.651 20.9758L136.929 20.5133L137.206 20.0508C136.6 19.6871 136.123 19.1887 135.771 18.5454L135.297 18.8045ZM136.929 20.5133L136.651 20.9758C137.435 21.446 138.327 21.6741 139.311 21.6741V21.1347V20.5953C138.499 20.5953 137.803 20.4091 137.206 20.0508L136.929 20.5133Z" fill="white" mask="url(#path-5-outside-2_4241_3875)"/>
<defs>
<linearGradient id="paint0_linear_4241_3875" x1="2.58887" y1="3.19727" x2="15.0345" y2="39.5901" gradientUnits="userSpaceOnUse">
<stop stop-color="#AD6DFF"/>
<stop offset="1" stop-color="#FF019A"/>
</linearGradient>
<linearGradient id="paint1_linear_4241_3875" x1="2.58887" y1="3.19727" x2="15.0345" y2="39.5901" gradientUnits="userSpaceOnUse">
<stop stop-color="#AD6DFF"/>
<stop offset="1" stop-color="#FF019A"/>
</linearGradient>
<linearGradient id="paint2_linear_4241_3875" x1="15.8936" y1="7.52344" x2="34.0469" y2="23.2563" gradientUnits="userSpaceOnUse">
<stop stop-color="#AD6DFF"/>
<stop offset="1" stop-color="#FF019A"/>
</linearGradient>
</defs>
</svg>
