<svg width="148" height="28" viewBox="0 0 148 28" fill="none" xmlns="http://www.w3.org/2000/svg">
<path d="M55.4164 21.8918C56.2665 21.6084 56.9849 21.2385 57.5655 20.7778C57.8934 20.5264 58.0752 20.1995 58.0534 19.8068C58.0325 19.4296 57.8423 19.1019 57.5286 18.8251L57.5286 18.8251L57.5246 18.8217C57.2622 18.5996 56.9476 18.4996 56.5969 18.5175C56.2639 18.5191 55.9541 18.6289 55.6729 18.8351L55.6707 18.8368C55.372 19.0608 54.9662 19.2697 54.4452 19.4593C53.9495 19.6294 53.4657 19.7132 52.9927 19.7132C52.1038 19.7132 51.3266 19.5186 50.6537 19.1363C49.9764 18.7514 49.4479 18.2302 49.0643 17.5703C48.8569 17.2137 48.7051 16.829 48.6095 16.415H57.58C57.9603 16.415 58.293 16.299 58.5577 16.0548L58.5578 16.0549L58.565 16.0477C58.8259 15.7868 58.9566 15.4611 58.9566 15.0872C58.9566 13.7705 58.7067 12.6006 58.1989 11.584C57.7068 10.55 56.9831 9.74018 56.0298 9.16101C55.0719 8.56269 53.9338 8.26916 52.6267 8.26916C51.3021 8.26916 50.1182 8.5713 49.0827 9.18206C48.0499 9.77499 47.2368 10.6058 46.6459 11.6696L46.6452 11.6708C46.0685 12.7225 45.7842 13.937 45.7842 15.3068C45.7842 16.6634 46.0861 17.879 46.6962 18.9466L46.6961 18.9466L46.6986 18.9508C47.3236 19.9981 48.1777 20.8264 49.2567 21.4333L49.2567 21.4334L49.2608 21.4356C50.3596 22.0273 51.6057 22.32 52.9927 22.32C53.7724 22.32 54.5807 22.1759 55.4164 21.8918ZM55.4164 21.8918C55.4161 21.8919 55.4158 21.892 55.4155 21.8921L55.3352 21.651M55.4164 21.8918C55.4166 21.8918 55.4168 21.8917 55.417 21.8917L55.3352 21.651M55.3352 21.651C54.5218 21.9275 53.741 22.0658 52.9927 22.0658C51.6425 22.0658 50.4387 21.7811 49.3813 21.2118M55.3352 21.651C56.1648 21.3745 56.8561 21.0166 57.4092 20.5774C57.6858 20.3659 57.8159 20.1138 57.7996 19.8209C57.7834 19.5281 57.637 19.2597 57.3604 19.0157L49.3813 21.2118M49.3813 21.2118C48.3402 20.6262 47.5187 19.8291 46.9168 18.8205C46.3312 17.7957 46.0384 16.6244 46.0384 15.3068C46.0384 13.9729 46.315 12.8016 46.868 11.7931L49.3813 21.2118ZM2.8472 21.7756L2.84709 21.7757L2.85329 21.7819C3.1469 22.0755 3.51335 22.2224 3.93585 22.2224H14.0378C14.4603 22.2224 14.8268 22.0755 15.1204 21.7819C15.414 21.4883 15.5608 21.1219 15.5608 20.6994C15.5608 20.2769 15.414 19.9104 15.1204 19.6168C14.8268 19.3232 14.4603 19.1763 14.0378 19.1763H5.45887V4.17998C5.45887 3.75748 5.31203 3.39103 5.01841 3.09742C4.7248 2.8038 4.35835 2.65696 3.93585 2.65696C3.52606 2.65696 3.16882 2.80628 2.87769 3.09742C2.58408 3.39103 2.43723 3.75748 2.43723 4.17998V20.6994C2.43723 21.1165 2.57218 21.481 2.8472 21.7756ZM36.9434 21.2475L36.9433 21.2476L36.9471 21.255C37.2569 21.8562 37.7241 22.198 38.3443 22.198C38.6443 22.198 38.9169 22.1172 39.1513 21.949C39.3828 21.7829 39.5621 21.5425 39.6973 21.2456C39.6976 21.245 39.6979 21.2444 39.6982 21.2438L44.8694 10.3403L44.8697 10.3396C45.027 10.0054 45.0491 9.65966 44.9282 9.31717C44.8054 8.96918 44.5576 8.71641 44.2089 8.56071C43.8463 8.38967 43.4721 8.35841 43.0992 8.47616L43.0991 8.47613L43.0953 8.47741C42.7395 8.596 42.4688 8.82741 42.2922 9.16083L42.2889 9.16719L42.2859 9.17373L38.3158 17.8229L34.3048 9.17284L34.3051 9.17269L34.2988 9.16083C34.1226 8.82807 33.8526 8.59692 33.4978 8.47811C33.1519 8.35665 32.8042 8.38999 32.4718 8.56445C32.117 8.73376 31.857 8.9876 31.7163 9.32939L31.7161 9.32934L31.7133 9.33692C31.5891 9.66813 31.614 10.0078 31.7701 10.3396L31.7704 10.3403L36.9434 21.2475ZM55.7899 12.8316C55.9575 13.1756 56.0803 13.5496 56.1573 13.9546H48.6424C48.7225 13.6261 48.8337 13.3171 48.9753 13.027L48.9763 13.025C49.2976 12.3518 49.7612 11.8282 50.3689 11.4481C50.9888 11.0704 51.7379 10.876 52.6267 10.876C53.4002 10.876 54.0407 11.0534 54.5611 11.3954C55.0893 11.7425 55.4985 12.2182 55.7888 12.8293L55.7899 12.8316Z" fill="url(#paint0_linear_4042_3791)" stroke="url(#paint1_linear_4042_3791)" stroke-width="0.508352"/>
<path d="M26.3027 7.95072C24.9689 7.95072 23.7882 8.7393 23.0828 9.93885C23.0241 10.024 22.9676 10.111 22.9133 10.1999C22.8072 10.3735 22.5382 10.3675 22.4399 10.1894C20.2229 6.17138 15.3586 7.92961 15.2329 12.6181C15.1099 17.206 19.64 18.7573 21.9176 22.649C22.2096 23.1479 23.1059 23.1403 23.3864 22.6348C25.064 19.6124 28.0628 17.8693 29.4227 15.2765C29.9164 14.5102 30.2099 13.5576 30.2099 12.5268C30.2099 11.891 30.0961 11.2623 29.8758 10.6813C29.8727 10.6715 29.8694 10.6622 29.8662 10.6525C29.8654 10.6503 29.8643 10.6482 29.8635 10.6461C29.4582 9.4066 28.6272 8.59092 27.6485 8.23142L27.6444 8.22988C27.2147 8.04501 26.7605 7.95047 26.3027 7.95072ZM26.3027 8.90964C28.0133 8.90964 29.3912 10.5234 29.3912 12.5268C29.3912 13.7912 28.8423 14.9011 28.0071 15.5474C28.4566 14.5187 28.3841 13.0352 27.7279 11.7041C26.9694 10.1657 25.6687 9.3165 24.5709 9.5284C25.0643 9.13755 25.6599 8.90964 26.3027 8.90964Z" fill="url(#paint2_linear_4042_3791)"/>
<mask id="path-3-outside-1_4042_3791" maskUnits="userSpaceOnUse" x="61.1699" y="1.40234" width="49" height="21" fill="black">
<rect fill="white" x="61.1699" y="1.40234" width="49" height="21"/>
<path d="M71.1503 21.6464C69.8327 21.6464 68.5964 21.4023 67.4414 20.9143C66.3027 20.41 65.3022 19.7187 64.4401 18.8403C63.5942 17.9456 62.9272 16.9044 62.4392 15.7169C61.9675 14.5294 61.7316 13.2443 61.7316 11.8616C61.7316 10.4952 61.9675 9.22631 62.4392 8.05506C62.9272 6.86756 63.5942 5.83459 64.4401 4.95615C65.3022 4.06145 66.3027 3.36196 67.4414 2.85768C68.5801 2.35339 69.8164 2.10125 71.1503 2.10125C72.4029 2.10125 73.4765 2.26392 74.3712 2.58927C75.2822 2.91461 76.1932 3.45143 77.1041 4.19973C77.2343 4.29733 77.3319 4.40307 77.3969 4.51694C77.4783 4.61454 77.5271 4.72028 77.5433 4.83415C77.5759 4.93175 77.5921 5.05376 77.5921 5.20016C77.5921 5.50924 77.4783 5.76952 77.2505 5.98099C77.0391 6.1762 76.7788 6.29007 76.4697 6.3226C76.1606 6.33887 75.8597 6.23313 75.5669 6.00539C74.965 5.48484 74.3387 5.08629 73.688 4.80975C73.0536 4.5332 72.2077 4.39493 71.1503 4.39493C70.1905 4.39493 69.2877 4.59014 68.4418 4.98055C67.5959 5.37097 66.8476 5.90779 66.1969 6.59101C65.5625 7.27424 65.0664 8.07133 64.7085 8.9823C64.3506 9.877 64.1717 10.8368 64.1717 11.8616C64.1717 12.9027 64.3506 13.8787 64.7085 14.7897C65.0664 15.6844 65.5625 16.4734 66.1969 17.1566C66.8476 17.8398 67.5959 18.3766 68.4418 18.767C69.2877 19.1412 70.1905 19.3283 71.1503 19.3283C71.9799 19.3283 72.7608 19.19 73.4928 18.9135C74.2411 18.6206 74.9569 18.2221 75.6401 17.7178C75.9329 17.5063 76.2176 17.4169 76.4941 17.4494C76.7869 17.4657 77.0309 17.5795 77.2261 17.791C77.4213 17.9862 77.5189 18.2628 77.5189 18.6206C77.5189 18.7833 77.4864 18.946 77.4213 19.1087C77.3563 19.2551 77.2587 19.3933 77.1285 19.5235C76.2501 20.223 75.3066 20.7517 74.298 21.1095C73.3057 21.4674 72.2565 21.6464 71.1503 21.6464ZM85.9203 21.4999C84.7328 21.4999 83.6673 21.2071 82.7238 20.6215C81.7803 20.0196 81.032 19.2144 80.4789 18.2058C79.9421 17.181 79.6737 16.026 79.6737 14.7409C79.6737 13.4558 79.9665 12.3008 80.5521 11.276C81.154 10.2511 81.9592 9.44591 82.9678 8.86029C83.9926 8.25841 85.1395 7.95746 86.4083 7.95746C87.6771 7.95746 88.8158 8.25841 89.8244 8.86029C90.833 9.44591 91.6301 10.2511 92.2157 11.276C92.8176 12.3008 93.1185 13.4558 93.1185 14.7409H92.1669C92.1669 16.026 91.8904 17.181 91.3373 18.2058C90.8005 19.2144 90.0603 20.0196 89.1168 20.6215C88.1733 21.2071 87.1078 21.4999 85.9203 21.4999ZM86.4083 19.3039C87.2379 19.3039 87.9781 19.1087 88.6288 18.7182C89.2795 18.3116 89.7919 17.7666 90.166 17.0834C90.5402 16.3839 90.7273 15.6031 90.7273 14.7409C90.7273 13.8625 90.5402 13.0816 90.166 12.3984C89.7919 11.6989 89.2795 11.154 88.6288 10.7636C87.9781 10.3569 87.2379 10.1535 86.4083 10.1535C85.5949 10.1535 84.8548 10.3569 84.1878 10.7636C83.5371 11.154 83.0166 11.6989 82.6262 12.3984C82.252 13.0816 82.0649 13.8625 82.0649 14.7409C82.0649 15.6031 82.252 16.3839 82.6262 17.0834C83.0166 17.7666 83.5371 18.3116 84.1878 18.7182C84.8548 19.1087 85.5949 19.3039 86.4083 19.3039ZM91.8741 21.4267C91.5162 21.4267 91.2153 21.3129 90.9713 21.0851C90.7435 20.8411 90.6296 20.5402 90.6296 20.1823V16.449L91.0933 13.8625L93.1185 14.7409V20.1823C93.1185 20.5402 92.9965 20.8411 92.7525 21.0851C92.5248 21.3129 92.232 21.4267 91.8741 21.4267ZM99.9948 21.4023C99.2791 21.4023 98.6446 21.2071 98.0915 20.8167C97.5385 20.4263 97.1074 19.8976 96.7983 19.2307C96.4892 18.5474 96.3347 17.7666 96.3347 16.8882V3.5653C96.3347 3.20742 96.4486 2.91461 96.6763 2.68687C96.904 2.45913 97.1969 2.34526 97.5547 2.34526C97.9126 2.34526 98.2054 2.45913 98.4332 2.68687C98.6609 2.91461 98.7748 3.20742 98.7748 3.5653V16.8882C98.7748 17.4901 98.8886 17.9862 99.1164 18.3766C99.3441 18.767 99.6369 18.9623 99.9948 18.9623H100.605C100.93 18.9623 101.19 19.0761 101.386 19.3039C101.597 19.5316 101.703 19.8244 101.703 20.1823C101.703 20.5402 101.548 20.833 101.239 21.0607C100.93 21.2885 100.532 21.4023 100.044 21.4023H99.9948ZM107.31 21.4023C106.595 21.4023 105.96 21.2071 105.407 20.8167C104.854 20.4263 104.423 19.8976 104.114 19.2307C103.805 18.5474 103.65 17.7666 103.65 16.8882V3.5653C103.65 3.20742 103.764 2.91461 103.992 2.68687C104.22 2.45913 104.512 2.34526 104.87 2.34526C105.228 2.34526 105.521 2.45913 105.749 2.68687C105.976 2.91461 106.09 3.20742 106.09 3.5653V16.8882C106.09 17.4901 106.204 17.9862 106.432 18.3766C106.66 18.767 106.952 18.9623 107.31 18.9623H107.92C108.246 18.9623 108.506 19.0761 108.701 19.3039C108.913 19.5316 109.018 19.8244 109.018 20.1823C109.018 20.5402 108.864 20.833 108.555 21.0607C108.246 21.2885 107.847 21.4023 107.359 21.4023H107.31Z"/>
</mask>
<path d="M71.1503 21.6464C69.8327 21.6464 68.5964 21.4023 67.4414 20.9143C66.3027 20.41 65.3022 19.7187 64.4401 18.8403C63.5942 17.9456 62.9272 16.9044 62.4392 15.7169C61.9675 14.5294 61.7316 13.2443 61.7316 11.8616C61.7316 10.4952 61.9675 9.22631 62.4392 8.05506C62.9272 6.86756 63.5942 5.83459 64.4401 4.95615C65.3022 4.06145 66.3027 3.36196 67.4414 2.85768C68.5801 2.35339 69.8164 2.10125 71.1503 2.10125C72.4029 2.10125 73.4765 2.26392 74.3712 2.58927C75.2822 2.91461 76.1932 3.45143 77.1041 4.19973C77.2343 4.29733 77.3319 4.40307 77.3969 4.51694C77.4783 4.61454 77.5271 4.72028 77.5433 4.83415C77.5759 4.93175 77.5921 5.05376 77.5921 5.20016C77.5921 5.50924 77.4783 5.76952 77.2505 5.98099C77.0391 6.1762 76.7788 6.29007 76.4697 6.3226C76.1606 6.33887 75.8597 6.23313 75.5669 6.00539C74.965 5.48484 74.3387 5.08629 73.688 4.80975C73.0536 4.5332 72.2077 4.39493 71.1503 4.39493C70.1905 4.39493 69.2877 4.59014 68.4418 4.98055C67.5959 5.37097 66.8476 5.90779 66.1969 6.59101C65.5625 7.27424 65.0664 8.07133 64.7085 8.9823C64.3506 9.877 64.1717 10.8368 64.1717 11.8616C64.1717 12.9027 64.3506 13.8787 64.7085 14.7897C65.0664 15.6844 65.5625 16.4734 66.1969 17.1566C66.8476 17.8398 67.5959 18.3766 68.4418 18.767C69.2877 19.1412 70.1905 19.3283 71.1503 19.3283C71.9799 19.3283 72.7608 19.19 73.4928 18.9135C74.2411 18.6206 74.9569 18.2221 75.6401 17.7178C75.9329 17.5063 76.2176 17.4169 76.4941 17.4494C76.7869 17.4657 77.0309 17.5795 77.2261 17.791C77.4213 17.9862 77.5189 18.2628 77.5189 18.6206C77.5189 18.7833 77.4864 18.946 77.4213 19.1087C77.3563 19.2551 77.2587 19.3933 77.1285 19.5235C76.2501 20.223 75.3066 20.7517 74.298 21.1095C73.3057 21.4674 72.2565 21.6464 71.1503 21.6464ZM85.9203 21.4999C84.7328 21.4999 83.6673 21.2071 82.7238 20.6215C81.7803 20.0196 81.032 19.2144 80.4789 18.2058C79.9421 17.181 79.6737 16.026 79.6737 14.7409C79.6737 13.4558 79.9665 12.3008 80.5521 11.276C81.154 10.2511 81.9592 9.44591 82.9678 8.86029C83.9926 8.25841 85.1395 7.95746 86.4083 7.95746C87.6771 7.95746 88.8158 8.25841 89.8244 8.86029C90.833 9.44591 91.6301 10.2511 92.2157 11.276C92.8176 12.3008 93.1185 13.4558 93.1185 14.7409H92.1669C92.1669 16.026 91.8904 17.181 91.3373 18.2058C90.8005 19.2144 90.0603 20.0196 89.1168 20.6215C88.1733 21.2071 87.1078 21.4999 85.9203 21.4999ZM86.4083 19.3039C87.2379 19.3039 87.9781 19.1087 88.6288 18.7182C89.2795 18.3116 89.7919 17.7666 90.166 17.0834C90.5402 16.3839 90.7273 15.6031 90.7273 14.7409C90.7273 13.8625 90.5402 13.0816 90.166 12.3984C89.7919 11.6989 89.2795 11.154 88.6288 10.7636C87.9781 10.3569 87.2379 10.1535 86.4083 10.1535C85.5949 10.1535 84.8548 10.3569 84.1878 10.7636C83.5371 11.154 83.0166 11.6989 82.6262 12.3984C82.252 13.0816 82.0649 13.8625 82.0649 14.7409C82.0649 15.6031 82.252 16.3839 82.6262 17.0834C83.0166 17.7666 83.5371 18.3116 84.1878 18.7182C84.8548 19.1087 85.5949 19.3039 86.4083 19.3039ZM91.8741 21.4267C91.5162 21.4267 91.2153 21.3129 90.9713 21.0851C90.7435 20.8411 90.6296 20.5402 90.6296 20.1823V16.449L91.0933 13.8625L93.1185 14.7409V20.1823C93.1185 20.5402 92.9965 20.8411 92.7525 21.0851C92.5248 21.3129 92.232 21.4267 91.8741 21.4267ZM99.9948 21.4023C99.2791 21.4023 98.6446 21.2071 98.0915 20.8167C97.5385 20.4263 97.1074 19.8976 96.7983 19.2307C96.4892 18.5474 96.3347 17.7666 96.3347 16.8882V3.5653C96.3347 3.20742 96.4486 2.91461 96.6763 2.68687C96.904 2.45913 97.1969 2.34526 97.5547 2.34526C97.9126 2.34526 98.2054 2.45913 98.4332 2.68687C98.6609 2.91461 98.7748 3.20742 98.7748 3.5653V16.8882C98.7748 17.4901 98.8886 17.9862 99.1164 18.3766C99.3441 18.767 99.6369 18.9623 99.9948 18.9623H100.605C100.93 18.9623 101.19 19.0761 101.386 19.3039C101.597 19.5316 101.703 19.8244 101.703 20.1823C101.703 20.5402 101.548 20.833 101.239 21.0607C100.93 21.2885 100.532 21.4023 100.044 21.4023H99.9948ZM107.31 21.4023C106.595 21.4023 105.96 21.2071 105.407 20.8167C104.854 20.4263 104.423 19.8976 104.114 19.2307C103.805 18.5474 103.65 17.7666 103.65 16.8882V3.5653C103.65 3.20742 103.764 2.91461 103.992 2.68687C104.22 2.45913 104.512 2.34526 104.87 2.34526C105.228 2.34526 105.521 2.45913 105.749 2.68687C105.976 2.91461 106.09 3.20742 106.09 3.5653V16.8882C106.09 17.4901 106.204 17.9862 106.432 18.3766C106.66 18.767 106.952 18.9623 107.31 18.9623H107.92C108.246 18.9623 108.506 19.0761 108.701 19.3039C108.913 19.5316 109.018 19.8244 109.018 20.1823C109.018 20.5402 108.864 20.833 108.555 21.0607C108.246 21.2885 107.847 21.4023 107.359 21.4023H107.31Z" fill="white"/>
<path d="M67.4414 20.9143L67.2355 21.3792L67.2435 21.3826L67.4414 20.9143ZM64.4401 18.8403L64.0706 19.1896L64.0773 19.1963L64.4401 18.8403ZM62.4392 15.7169L61.9667 15.9046L61.969 15.9102L62.4392 15.7169ZM62.4392 8.05506L61.969 7.86183L61.9677 7.86514L62.4392 8.05506ZM64.4401 4.95615L64.074 4.60341L64.0739 4.60354L64.4401 4.95615ZM67.4414 2.85768L67.2355 2.39287L67.2355 2.39287L67.4414 2.85768ZM74.3712 2.58927L74.1975 3.06702L74.2003 3.068L74.3712 2.58927ZM77.1041 4.19973L76.7815 4.59254L76.7901 4.59967L76.7991 4.60641L77.1041 4.19973ZM77.3969 4.51694L76.9556 4.76915L76.9778 4.808L77.0064 4.84238L77.3969 4.51694ZM77.5433 4.83415L77.0401 4.90604L77.0466 4.95142L77.0611 4.99491L77.5433 4.83415ZM77.2505 5.98099L77.5953 6.35453L77.5964 6.35351L77.2505 5.98099ZM76.4697 6.3226L76.4964 6.83025L76.5097 6.82955L76.5229 6.82816L76.4697 6.3226ZM75.5669 6.00539L75.2343 6.38989L75.2443 6.39854L75.2548 6.40666L75.5669 6.00539ZM73.688 4.80975L73.4849 5.27577L73.4892 5.2776L73.688 4.80975ZM66.1969 6.59101L65.8288 6.2404L65.8244 6.2451L66.1969 6.59101ZM64.7085 8.9823L65.1805 9.1711L65.1816 9.16818L64.7085 8.9823ZM64.7085 14.7897L64.2353 14.9756L64.2365 14.9785L64.7085 14.7897ZM66.1969 17.1566L65.8244 17.5025L65.8288 17.5072L66.1969 17.1566ZM68.4418 18.767L68.2288 19.2287L68.2362 19.232L68.4418 18.767ZM73.4928 18.9135L73.6725 19.389L73.678 19.3869L73.4928 18.9135ZM75.6401 17.7178L75.3424 17.3057L75.3382 17.3088L75.6401 17.7178ZM76.4941 17.4494L76.4347 17.9543L76.4503 17.9561L76.4659 17.957L76.4941 17.4494ZM77.2261 17.791L76.8526 18.1358L76.8595 18.1433L76.8667 18.1505L77.2261 17.791ZM77.4213 19.1087L77.8859 19.3151L77.8898 19.3064L77.8933 19.2975L77.4213 19.1087ZM77.1285 19.5235L77.4452 19.9211L77.4677 19.9033L77.488 19.8829L77.1285 19.5235ZM74.298 21.1095L74.128 20.6304L74.1256 20.6313L74.298 21.1095ZM71.1503 21.138C69.8971 21.138 68.7284 20.9063 67.6392 20.4461L67.2435 21.3826C68.4643 21.8984 69.7682 22.1547 71.1503 22.1547V21.138ZM67.6472 20.4495C66.5665 19.9709 65.6195 19.3162 64.8029 18.4842L64.0773 19.1963C64.985 20.1211 66.0388 20.8492 67.2355 21.3791L67.6472 20.4495ZM64.8095 18.491C64.0083 17.6436 63.3747 16.656 62.9094 15.5237L61.969 15.9102C62.4797 17.1529 63.1801 18.2475 64.0707 19.1895L64.8095 18.491ZM62.9116 15.5293C62.4655 14.4062 62.2399 13.1854 62.2399 11.8616H61.2232C61.2232 13.3033 61.4694 14.6526 61.9668 15.9046L62.9116 15.5293ZM62.2399 11.8616C62.2399 10.5548 62.4652 9.35106 62.9107 8.24499L61.9677 7.86514C61.4697 9.10155 61.2232 10.4355 61.2232 11.8616H62.2399ZM62.9094 8.24829C63.3744 7.11682 64.0071 6.13869 64.8063 5.30877L64.0739 4.60354C63.1813 5.53048 62.4801 6.61829 61.969 7.86183L62.9094 8.24829ZM64.8061 5.30889C65.6225 4.46168 66.5685 3.8002 67.6472 3.32249L67.2355 2.39287C66.0368 2.92373 64.9819 3.66123 64.074 4.60341L64.8061 5.30889ZM67.6472 3.32249C68.7166 2.84892 69.8822 2.6096 71.1503 2.6096V1.5929C69.7506 1.5929 68.4436 1.85787 67.2355 2.39287L67.6472 3.32249ZM71.1503 2.6096C72.3613 2.6096 73.373 2.76718 74.1975 3.06701L74.545 2.11152C73.5801 1.76067 72.4445 1.5929 71.1503 1.5929V2.6096ZM74.2003 3.068C75.0455 3.36988 75.9062 3.87355 76.7815 4.59254L77.4268 3.80691C76.4802 3.02932 75.5189 2.45934 74.5422 2.11053L74.2003 3.068ZM76.7991 4.60641C76.8867 4.67208 76.9321 4.72816 76.9556 4.76915L77.8383 4.26472C77.7316 4.07797 77.5818 3.92258 77.4091 3.79304L76.7991 4.60641ZM77.0064 4.84238C77.0339 4.87537 77.0385 4.89508 77.0401 4.90604L78.0466 4.76226C78.0156 4.54547 77.9226 4.35372 77.7875 4.1915L77.0064 4.84238ZM77.0611 4.99491C77.0707 5.02384 77.0838 5.08725 77.0838 5.20016H78.1005C78.1005 5.02026 78.081 4.83967 78.0256 4.67339L77.0611 4.99491ZM77.0838 5.20016C77.0838 5.367 77.0294 5.49258 76.9046 5.60847L77.5964 6.35351C77.9271 6.04645 78.1005 5.65148 78.1005 5.20016H77.0838ZM76.9057 5.60745C76.7813 5.72235 76.6259 5.795 76.4165 5.81704L76.5229 6.82816C76.9317 6.78514 77.2969 6.63004 77.5953 6.35453L76.9057 5.60745ZM76.443 5.81495C76.2792 5.82358 76.0954 5.77244 75.879 5.60412L75.2548 6.40666C75.624 6.69382 76.0421 6.85416 76.4964 6.83025L76.443 5.81495ZM75.8994 5.62089C75.2625 5.07006 74.5918 4.64152 73.8868 4.3419L73.4892 5.2776C74.0856 5.53106 74.6675 5.89962 75.2343 6.38989L75.8994 5.62089ZM73.8911 4.34374C73.1679 4.02849 72.2443 3.88658 71.1503 3.88658V4.90328C72.171 4.90328 72.9393 5.03792 73.4849 5.27575L73.8911 4.34374ZM71.1503 3.88658C70.1193 3.88658 69.1435 4.09681 68.2288 4.51899L68.6548 5.44212C69.4319 5.08347 70.2618 4.90328 71.1503 4.90328V3.88658ZM68.2288 4.51899C67.3239 4.93663 66.5232 5.51136 65.8288 6.24042L66.5651 6.9416C67.1721 6.30421 67.8679 5.80531 68.6548 5.44212L68.2288 4.51899ZM65.8244 6.2451C65.1446 6.9772 64.6153 7.82927 64.2353 8.79642L65.1816 9.16818C65.5174 8.31339 65.9804 7.57127 66.5695 6.93692L65.8244 6.2451ZM64.2365 8.7935C63.8531 9.75199 63.6633 10.7762 63.6633 11.8616H64.68C64.68 10.8973 64.8481 10.002 65.1805 9.1711L64.2365 8.7935ZM63.6633 11.8616C63.6633 12.9622 63.8527 14.0017 64.2353 14.9756L65.1816 14.6038C64.8485 13.7558 64.68 12.8432 64.68 11.8616H63.6633ZM64.2365 14.9785C64.6168 15.9293 65.146 16.7719 65.8244 17.5025L66.5695 16.8107C65.979 16.1748 65.5159 15.4395 65.1805 14.6009L64.2365 14.9785ZM65.8288 17.5072C66.5232 18.2362 67.3239 18.811 68.2288 19.2286L68.6548 18.3055C67.8679 17.9423 67.1721 17.4434 66.5651 16.806L65.8288 17.5072ZM68.2362 19.232C69.1493 19.6358 70.1225 19.8366 71.1503 19.8366V18.8199C70.2586 18.8199 69.4261 18.6466 68.6475 18.3021L68.2362 19.232ZM71.1503 19.8366C72.0376 19.8366 72.8796 19.6885 73.6725 19.389L73.3131 18.4379C72.6419 18.6915 71.9223 18.8199 71.1503 18.8199V19.8366ZM73.678 19.3869C74.4702 19.0769 75.2249 18.6561 75.942 18.1268L75.3382 17.3088C74.6888 17.7881 74.012 18.1644 73.3076 18.4401L73.678 19.3869ZM75.9377 18.1299C76.1589 17.9702 76.3186 17.9406 76.4347 17.9543L76.5535 16.9445C76.1165 16.8931 75.7069 17.0425 75.3424 17.3057L75.9377 18.1299ZM76.4659 17.957C76.6296 17.9661 76.7489 18.0234 76.8526 18.1358L77.5997 17.4462C77.313 17.1356 76.9442 16.9653 76.5223 16.9418L76.4659 17.957ZM76.8667 18.1505C76.9406 18.2244 77.0106 18.3559 77.0106 18.6206H78.0273C78.0273 18.1696 77.902 17.748 77.5856 17.4316L76.8667 18.1505ZM77.0106 18.6206C77.0106 18.7138 76.9923 18.8126 76.9493 18.9199L77.8933 19.2975C77.9806 19.0794 78.0273 18.8528 78.0273 18.6206H77.0106ZM76.9568 18.9022C76.9205 18.9838 76.8616 19.0715 76.7691 19.164L77.488 19.8829C77.6558 19.7152 77.792 19.5264 77.8859 19.3151L76.9568 18.9022ZM76.8119 19.1258C75.9753 19.792 75.081 20.2923 74.128 20.6304L74.468 21.5886C75.5322 21.211 76.5249 20.654 77.4452 19.9211L76.8119 19.1258ZM74.1256 20.6313C73.1912 20.9683 72.2006 21.138 71.1503 21.138V22.1547C72.3124 22.1547 73.4202 21.9665 74.4705 21.5877L74.1256 20.6313ZM82.7238 20.6215L82.4503 21.0501L82.4557 21.0534L82.7238 20.6215ZM80.4789 18.2058L80.0285 18.4418L80.0332 18.4503L80.4789 18.2058ZM80.5521 11.276L80.1137 11.0185L80.1107 11.0238L80.5521 11.276ZM82.9678 8.86029L83.223 9.29992L83.2252 9.29864L82.9678 8.86029ZM89.8244 8.86029L89.5639 9.29685L89.5692 9.29991L89.8244 8.86029ZM92.2157 11.276L91.7743 11.5282L91.7774 11.5334L92.2157 11.276ZM93.1185 14.7409V15.2493H93.6269V14.7409H93.1185ZM92.1669 14.7409V14.2326H91.6586V14.7409H92.1669ZM91.3373 18.2058L90.8899 17.9644L90.8885 17.967L91.3373 18.2058ZM89.1168 20.6215L89.3849 21.0535L89.3902 21.0501L89.1168 20.6215ZM88.6288 18.7182L88.8904 19.1542L88.8982 19.1493L88.6288 18.7182ZM90.166 17.0834L90.6119 17.3276L90.6143 17.3232L90.166 17.0834ZM90.166 12.3984L89.7178 12.6382L89.7202 12.6426L90.166 12.3984ZM88.6288 10.7636L88.3593 11.1947L88.3672 11.1995L88.6288 10.7636ZM84.1878 10.7636L84.4494 11.1995L84.4525 11.1976L84.1878 10.7636ZM82.6262 12.3984L82.1823 12.1507L82.1803 12.1543L82.6262 12.3984ZM82.6262 17.0834L82.1779 17.3232L82.1813 17.3294L82.1848 17.3356L82.6262 17.0834ZM84.1878 18.7182L83.9184 19.1493L83.9246 19.1532L83.931 19.157L84.1878 18.7182ZM90.9713 21.0851L90.5996 21.432L90.6116 21.4448L90.6244 21.4568L90.9713 21.0851ZM90.6296 16.449L90.1293 16.3593L90.1213 16.4038V16.449H90.6296ZM91.0933 13.8625L91.2955 13.3961L90.7062 13.1405L90.5929 13.7728L91.0933 13.8625ZM93.1185 14.7409H93.6269V14.4073L93.3208 14.2745L93.1185 14.7409ZM92.7525 21.0851L93.112 21.4446L93.112 21.4446L92.7525 21.0851ZM85.9203 20.9916C84.8207 20.9916 83.8492 20.7218 82.9919 20.1896L82.4557 21.0534C83.4853 21.6925 84.6449 22.0083 85.9203 22.0083V20.9916ZM82.9972 20.1929C82.1277 19.6383 81.4378 18.8973 80.9246 17.9614L80.0332 18.4503C80.6261 19.5315 81.4328 20.401 82.4504 21.0501L82.9972 20.1929ZM80.9292 17.97C80.4346 17.0257 80.182 15.9531 80.182 14.7409H79.1653C79.1653 16.0989 79.4496 17.3363 80.0286 18.4417L80.9292 17.97ZM80.182 14.7409C80.182 13.5362 80.4556 12.4695 80.9935 11.5282L80.1107 11.0238C79.4774 12.1321 79.1653 13.3754 79.1653 14.7409H80.182ZM80.9904 11.5334C81.5489 10.5826 82.2917 9.84071 83.223 9.29991L82.7125 8.42068C81.6268 9.05112 80.7591 9.91974 80.1137 11.0185L80.9904 11.5334ZM83.2252 9.29864C84.1667 8.7457 85.2236 8.46581 86.4083 8.46581V7.44911C85.0553 7.44911 83.8185 7.77111 82.7103 8.42195L83.2252 9.29864ZM86.4083 8.46581C87.593 8.46581 88.6404 8.7457 89.5639 9.29682L90.0849 8.42377C88.9913 7.77111 87.7612 7.44911 86.4083 7.44911V8.46581ZM89.5692 9.29991C90.4993 9.83998 91.2326 10.5801 91.7743 11.5282L92.6571 11.0238C92.0276 9.92214 91.1667 9.05185 90.0797 8.42068L89.5692 9.29991ZM91.7774 11.5334C92.3297 12.4739 92.6102 13.5387 92.6102 14.7409H93.6269C93.6269 13.3729 93.3055 12.1277 92.6541 11.0185L91.7774 11.5334ZM93.1185 14.2326H92.1669V15.2493H93.1185V14.2326ZM91.6586 14.7409C91.6586 15.9506 91.3989 17.0212 90.8899 17.9644L91.7846 18.4473C92.3818 17.3408 92.6753 16.1014 92.6753 14.7409H91.6586ZM90.8885 17.967C90.3919 18.9 89.7115 19.6392 88.8434 20.1929L89.3902 21.0501C90.4091 20.4001 91.209 19.5288 91.786 18.4447L90.8885 17.967ZM88.8487 20.1896C87.9913 20.7218 87.0199 20.9916 85.9203 20.9916V22.0083C87.1957 22.0083 88.3553 21.6925 89.3849 21.0534L88.8487 20.1896ZM86.4083 19.8122C87.3212 19.8122 88.1533 19.5963 88.8903 19.1542L88.3672 18.2823C87.8028 18.621 87.1547 18.7955 86.4083 18.7955V19.8122ZM88.8982 19.1493C89.6239 18.6958 90.1966 18.086 90.6119 17.3276L89.7202 16.8392C89.3872 17.4473 88.935 17.9274 88.3594 18.2872L88.8982 19.1493ZM90.6143 17.3232C91.0313 16.5436 91.2356 15.6793 91.2356 14.7409H90.2189C90.2189 15.5269 90.0491 16.2242 89.7178 16.8436L90.6143 17.3232ZM91.2356 14.7409C91.2356 13.7882 91.032 12.9215 90.6119 12.1543L89.7202 12.6426C90.0483 13.2418 90.2189 13.9368 90.2189 14.7409H91.2356ZM90.6143 12.1587C90.1988 11.3819 89.6235 10.7676 88.8903 10.3277L88.3672 11.1995C88.9354 11.5404 89.3849 12.0159 89.7178 12.6382L90.6143 12.1587ZM88.8982 10.3325C88.1602 9.8712 87.3252 9.64519 86.4083 9.64519V10.6619C87.1507 10.6619 87.796 10.8426 88.3594 11.1946L88.8982 10.3325ZM86.4083 9.64519C85.5056 9.64519 84.6732 9.87219 83.9232 10.3295L84.4525 11.1976C85.0363 10.8416 85.6843 10.6619 86.4083 10.6619V9.64519ZM83.9263 10.3277C83.1951 10.7663 82.6135 11.3781 82.1823 12.1507L83.0701 12.6462C83.4197 12.0198 83.8791 11.5416 84.4494 11.1995L83.9263 10.3277ZM82.1803 12.1543C81.7601 12.9215 81.5566 13.7882 81.5566 14.7409H82.5733C82.5733 13.9368 82.7439 13.2418 83.072 12.6426L82.1803 12.1543ZM81.5566 14.7409C81.5566 15.6793 81.7609 16.5436 82.1779 17.3232L83.0744 16.8436C82.7431 16.2242 82.5733 15.5269 82.5733 14.7409H81.5566ZM82.1848 17.3356C82.6158 18.0898 83.1946 18.697 83.9184 19.1493L84.4572 18.2872C83.8796 17.9262 83.4174 17.4434 83.0675 16.8312L82.1848 17.3356ZM83.931 19.157C84.68 19.5954 85.5096 19.8122 86.4083 19.8122V18.7955C85.6803 18.7955 85.0295 18.6219 84.4446 18.2795L83.931 19.157ZM91.8741 20.9184C91.6348 20.9184 91.4608 20.8467 91.3181 20.7135L90.6244 21.4568C90.9697 21.7791 91.3976 21.9351 91.8741 21.9351V20.9184ZM91.3429 20.7383C91.2097 20.5956 91.138 20.4216 91.138 20.1823H90.1213C90.1213 20.6588 90.2773 21.0867 90.5996 21.432L91.3429 20.7383ZM91.138 20.1823V16.449H90.1213V20.1823H91.138ZM91.13 16.5387L91.5936 13.9522L90.5929 13.7728L90.1293 16.3593L91.13 16.5387ZM90.891 14.3288L92.9163 15.2073L93.3208 14.2745L91.2955 13.3961L90.891 14.3288ZM92.6102 14.7409V20.1823H93.6269V14.7409H92.6102ZM92.6102 20.1823C92.6102 20.4109 92.5379 20.5809 92.3931 20.7257L93.112 21.4446C93.4552 21.1014 93.6269 20.6694 93.6269 20.1823H92.6102ZM92.3931 20.7257C92.2717 20.8471 92.1136 20.9184 91.8741 20.9184V21.9351C92.3504 21.9351 92.7779 21.7787 93.112 21.4446L92.3931 20.7257ZM98.0915 20.8167L97.7984 21.232L97.7984 21.232L98.0915 20.8167ZM96.7983 19.2307L96.3351 19.4402L96.3371 19.4444L96.7983 19.2307ZM96.6763 2.68687L97.0358 3.04633L97.0358 3.04633L96.6763 2.68687ZM99.1164 18.3766L99.5555 18.1205L99.5555 18.1205L99.1164 18.3766ZM101.386 19.3039L101 19.6347L101.006 19.6424L101.013 19.6498L101.386 19.3039ZM101.239 21.0607L101.541 21.47L101.541 21.47L101.239 21.0607ZM99.9948 20.894C99.3777 20.894 98.847 20.7277 98.3847 20.4014L97.7984 21.232C98.4423 21.6866 99.1804 21.9107 99.9948 21.9107V20.894ZM98.3847 20.4014C97.9105 20.0667 97.5345 19.6103 97.2595 19.0169L96.3371 19.4444C96.6803 20.185 97.1664 20.7859 97.7984 21.232L98.3847 20.4014ZM97.2615 19.0211C96.9868 18.4141 96.843 17.7066 96.843 16.8882H95.8263C95.8263 17.8266 95.9916 18.6808 96.3351 19.4402L97.2615 19.0211ZM96.843 16.8882V3.5653H95.8263V16.8882H96.843ZM96.843 3.5653C96.843 3.32583 96.9144 3.16772 97.0358 3.04633L96.3168 2.32741C95.9827 2.6615 95.8263 3.08902 95.8263 3.5653H96.843ZM97.0358 3.04633C97.1572 2.92494 97.3153 2.85361 97.5547 2.85361V1.83691C97.0784 1.83691 96.6509 1.99332 96.3168 2.32741L97.0358 3.04633ZM97.5547 2.85361C97.7942 2.85361 97.9523 2.92494 98.0737 3.04633L98.7926 2.32741C98.4585 1.99332 98.031 1.83691 97.5547 1.83691V2.85361ZM98.0737 3.04633C98.1951 3.16772 98.2664 3.32583 98.2664 3.5653H99.2831C99.2831 3.08902 99.1267 2.6615 98.7926 2.32741L98.0737 3.04633ZM98.2664 3.5653V16.8882H99.2831V3.5653H98.2664ZM98.2664 16.8882C98.2664 17.5512 98.3916 18.143 98.6773 18.6328L99.5555 18.1205C99.3857 17.8295 99.2831 17.429 99.2831 16.8882H98.2664ZM98.6773 18.6328C98.9684 19.1318 99.4071 19.4706 99.9948 19.4706V18.4539C99.8668 18.4539 99.7199 18.4023 99.5555 18.1205L98.6773 18.6328ZM99.9948 19.4706H100.605V18.4539H99.9948V19.4706ZM100.605 19.4706C100.796 19.4706 100.91 19.53 101 19.6347L101.772 18.973C101.471 18.6223 101.064 18.4539 100.605 18.4539V19.4706ZM101.013 19.6498C101.124 19.7693 101.195 19.9319 101.195 20.1823H102.211C102.211 19.7169 102.07 19.294 101.758 18.958L101.013 19.6498ZM101.195 20.1823C101.195 20.3654 101.128 20.5114 100.938 20.6515L101.541 21.47C101.969 21.1546 102.211 20.7149 102.211 20.1823H101.195ZM100.938 20.6515C100.737 20.7992 100.453 20.894 100.044 20.894V21.9107C100.611 21.9107 101.123 21.7777 101.541 21.47L100.938 20.6515ZM100.044 20.894H99.9948V21.9107H100.044V20.894ZM105.407 20.8167L105.114 21.232L105.114 21.232L105.407 20.8167ZM104.114 19.2307L103.651 19.4402L103.653 19.4444L104.114 19.2307ZM103.992 2.68687L104.351 3.04633L104.351 3.04633L103.992 2.68687ZM106.432 18.3766L106.871 18.1205L106.871 18.1205L106.432 18.3766ZM108.701 19.3039L108.315 19.6347L108.322 19.6424L108.329 19.6498L108.701 19.3039ZM108.555 21.0607L108.856 21.47L108.856 21.47L108.555 21.0607ZM107.31 20.894C106.693 20.894 106.162 20.7277 105.7 20.4014L105.114 21.232C105.758 21.6866 106.496 21.9107 107.31 21.9107V20.894ZM105.7 20.4014C105.226 20.0667 104.85 19.6103 104.575 19.0169L103.653 19.4444C103.996 20.185 104.482 20.7859 105.114 21.232L105.7 20.4014ZM104.577 19.0211C104.302 18.4141 104.159 17.7066 104.159 16.8882H103.142C103.142 17.8266 103.307 18.6808 103.651 19.4402L104.577 19.0211ZM104.159 16.8882V3.5653H103.142V16.8882H104.159ZM104.159 3.5653C104.159 3.32583 104.23 3.16772 104.351 3.04633L103.632 2.32741C103.298 2.6615 103.142 3.08902 103.142 3.5653H104.159ZM104.351 3.04633C104.473 2.92494 104.631 2.85361 104.87 2.85361V1.83691C104.394 1.83691 103.966 1.99332 103.632 2.32741L104.351 3.04633ZM104.87 2.85361C105.11 2.85361 105.268 2.92494 105.389 3.04633L106.108 2.32741C105.774 1.99332 105.347 1.83691 104.87 1.83691V2.85361ZM105.389 3.04633C105.511 3.16772 105.582 3.32583 105.582 3.5653H106.599C106.599 3.08902 106.442 2.6615 106.108 2.32741L105.389 3.04633ZM105.582 3.5653V16.8882H106.599V3.5653H105.582ZM105.582 16.8882C105.582 17.5512 105.707 18.143 105.993 18.6328L106.871 18.1205C106.701 17.8295 106.599 17.429 106.599 16.8882H105.582ZM105.993 18.6328C106.284 19.1318 106.723 19.4706 107.31 19.4706V18.4539C107.182 18.4539 107.035 18.4023 106.871 18.1205L105.993 18.6328ZM107.31 19.4706H107.92V18.4539H107.31V19.4706ZM107.92 19.4706C108.111 19.4706 108.225 19.53 108.315 19.6347L109.087 18.973C108.786 18.6223 108.38 18.4539 107.92 18.4539V19.4706ZM108.329 19.6498C108.44 19.7693 108.51 19.9319 108.51 20.1823H109.527C109.527 19.7169 109.386 19.294 109.074 18.958L108.329 19.6498ZM108.51 20.1823C108.51 20.3654 108.443 20.5114 108.253 20.6515L108.856 21.47C109.284 21.1546 109.527 20.7149 109.527 20.1823H108.51ZM108.253 20.6515C108.053 20.7992 107.768 20.894 107.359 20.894V21.9107C107.926 21.9107 108.439 21.7777 108.856 21.47L108.253 20.6515ZM107.359 20.894H107.31V21.9107H107.359V20.894Z" fill="white" mask="url(#path-3-outside-1_4042_3791)"/>
<mask id="path-5-outside-2_4042_3791" maskUnits="userSpaceOnUse" x="110.17" y="7.40234" width="36" height="15" fill="black">
<rect fill="white" x="110.17" y="7.40234" width="36" height="15"/>
<path d="M113.074 21.7928C112.618 21.7928 112.22 21.6301 111.878 21.3047C111.553 20.9631 111.39 20.5646 111.39 20.1091C111.39 19.6373 111.553 19.2388 111.878 18.9135C112.22 18.5718 112.618 18.401 113.074 18.401C113.545 18.401 113.944 18.5718 114.269 18.9135C114.595 19.2388 114.757 19.6373 114.757 20.1091C114.757 20.5646 114.595 20.9631 114.269 21.3047C113.944 21.6301 113.545 21.7928 113.074 21.7928ZM124.232 21.4999C122.93 21.4999 121.767 21.2071 120.742 20.6215C119.734 20.0196 118.937 19.2144 118.351 18.2058C117.782 17.181 117.497 16.026 117.497 14.7409C117.497 13.4233 117.782 12.252 118.351 11.2272C118.92 10.2023 119.701 9.40525 120.694 8.83589C121.686 8.25027 122.825 7.95746 124.11 7.95746C125.069 7.95746 125.948 8.14453 126.745 8.51868C127.542 8.87656 128.258 9.42151 128.892 10.1535C129.12 10.4138 129.201 10.6822 129.136 10.9588C129.071 11.2353 128.892 11.4793 128.599 11.6908C128.372 11.8535 128.12 11.9104 127.843 11.8616C127.566 11.7965 127.314 11.6501 127.087 11.4224C126.289 10.5765 125.297 10.1535 124.11 10.1535C123.28 10.1535 122.548 10.3487 121.914 10.7392C121.279 11.1133 120.783 11.642 120.425 12.3252C120.067 13.0084 119.888 13.8137 119.888 14.7409C119.888 15.6193 120.067 16.4002 120.425 17.0834C120.799 17.7666 121.312 18.3116 121.962 18.7182C122.613 19.1087 123.37 19.3039 124.232 19.3039C124.801 19.3039 125.297 19.2388 125.72 19.1087C126.159 18.9623 126.558 18.7426 126.916 18.4498C127.176 18.2384 127.444 18.1245 127.721 18.1082C127.998 18.0757 128.242 18.1489 128.453 18.3278C128.73 18.5556 128.884 18.8159 128.917 19.1087C128.949 19.3852 128.852 19.6373 128.624 19.8651C127.453 20.955 125.989 21.4999 124.232 21.4999ZM138.887 21.4999C137.569 21.4999 136.406 21.2153 135.397 20.6459C134.389 20.0603 133.592 19.2632 133.006 18.2546C132.437 17.2298 132.152 16.0586 132.152 14.7409C132.152 13.407 132.437 12.2357 133.006 11.2272C133.592 10.2023 134.389 9.40525 135.397 8.83589C136.406 8.25027 137.569 7.95746 138.887 7.95746C140.188 7.95746 141.343 8.25027 142.351 8.83589C143.36 9.40525 144.149 10.2023 144.718 11.2272C145.304 12.2357 145.597 13.407 145.597 14.7409C145.597 16.0586 145.312 17.2298 144.743 18.2546C144.173 19.2632 143.384 20.0603 142.376 20.6459C141.367 21.2153 140.204 21.4999 138.887 21.4999ZM138.887 19.3039C139.732 19.3039 140.481 19.1087 141.131 18.7182C141.782 18.3278 142.286 17.791 142.644 17.1078C143.018 16.4246 143.205 15.6356 143.205 14.7409C143.205 13.8462 143.018 13.0572 142.644 12.374C142.286 11.6745 141.782 11.1296 141.131 10.7392C140.481 10.3487 139.732 10.1535 138.887 10.1535C138.041 10.1535 137.292 10.3487 136.642 10.7392C135.991 11.1296 135.479 11.6745 135.104 12.374C134.73 13.0572 134.543 13.8462 134.543 14.7409C134.543 15.6356 134.73 16.4246 135.104 17.1078C135.479 17.791 135.991 18.3278 136.642 18.7182C137.292 19.1087 138.041 19.3039 138.887 19.3039Z"/>
</mask>
<path d="M113.074 21.7928C112.618 21.7928 112.22 21.6301 111.878 21.3047C111.553 20.9631 111.39 20.5646 111.39 20.1091C111.39 19.6373 111.553 19.2388 111.878 18.9135C112.22 18.5718 112.618 18.401 113.074 18.401C113.545 18.401 113.944 18.5718 114.269 18.9135C114.595 19.2388 114.757 19.6373 114.757 20.1091C114.757 20.5646 114.595 20.9631 114.269 21.3047C113.944 21.6301 113.545 21.7928 113.074 21.7928ZM124.232 21.4999C122.93 21.4999 121.767 21.2071 120.742 20.6215C119.734 20.0196 118.937 19.2144 118.351 18.2058C117.782 17.181 117.497 16.026 117.497 14.7409C117.497 13.4233 117.782 12.252 118.351 11.2272C118.92 10.2023 119.701 9.40525 120.694 8.83589C121.686 8.25027 122.825 7.95746 124.11 7.95746C125.069 7.95746 125.948 8.14453 126.745 8.51868C127.542 8.87656 128.258 9.42151 128.892 10.1535C129.12 10.4138 129.201 10.6822 129.136 10.9588C129.071 11.2353 128.892 11.4793 128.599 11.6908C128.372 11.8535 128.12 11.9104 127.843 11.8616C127.566 11.7965 127.314 11.6501 127.087 11.4224C126.289 10.5765 125.297 10.1535 124.11 10.1535C123.28 10.1535 122.548 10.3487 121.914 10.7392C121.279 11.1133 120.783 11.642 120.425 12.3252C120.067 13.0084 119.888 13.8137 119.888 14.7409C119.888 15.6193 120.067 16.4002 120.425 17.0834C120.799 17.7666 121.312 18.3116 121.962 18.7182C122.613 19.1087 123.37 19.3039 124.232 19.3039C124.801 19.3039 125.297 19.2388 125.72 19.1087C126.159 18.9623 126.558 18.7426 126.916 18.4498C127.176 18.2384 127.444 18.1245 127.721 18.1082C127.998 18.0757 128.242 18.1489 128.453 18.3278C128.73 18.5556 128.884 18.8159 128.917 19.1087C128.949 19.3852 128.852 19.6373 128.624 19.8651C127.453 20.955 125.989 21.4999 124.232 21.4999ZM138.887 21.4999C137.569 21.4999 136.406 21.2153 135.397 20.6459C134.389 20.0603 133.592 19.2632 133.006 18.2546C132.437 17.2298 132.152 16.0586 132.152 14.7409C132.152 13.407 132.437 12.2357 133.006 11.2272C133.592 10.2023 134.389 9.40525 135.397 8.83589C136.406 8.25027 137.569 7.95746 138.887 7.95746C140.188 7.95746 141.343 8.25027 142.351 8.83589C143.36 9.40525 144.149 10.2023 144.718 11.2272C145.304 12.2357 145.597 13.407 145.597 14.7409C145.597 16.0586 145.312 17.2298 144.743 18.2546C144.173 19.2632 143.384 20.0603 142.376 20.6459C141.367 21.2153 140.204 21.4999 138.887 21.4999ZM138.887 19.3039C139.732 19.3039 140.481 19.1087 141.131 18.7182C141.782 18.3278 142.286 17.791 142.644 17.1078C143.018 16.4246 143.205 15.6356 143.205 14.7409C143.205 13.8462 143.018 13.0572 142.644 12.374C142.286 11.6745 141.782 11.1296 141.131 10.7392C140.481 10.3487 139.732 10.1535 138.887 10.1535C138.041 10.1535 137.292 10.3487 136.642 10.7392C135.991 11.1296 135.479 11.6745 135.104 12.374C134.73 13.0572 134.543 13.8462 134.543 14.7409C134.543 15.6356 134.73 16.4246 135.104 17.1078C135.479 17.791 135.991 18.3278 136.642 18.7182C137.292 19.1087 138.041 19.3039 138.887 19.3039Z" fill="white"/>
<path d="M111.878 21.3047L111.51 21.6553L111.518 21.6643L111.527 21.6729L111.878 21.3047ZM111.878 18.9135L111.519 18.554L111.519 18.554L111.878 18.9135ZM114.269 18.9135L113.901 19.2641L113.91 19.2729L114.269 18.9135ZM114.269 21.3047L114.629 21.6643L114.637 21.6553L114.269 21.3047ZM113.074 21.2844C112.754 21.2844 112.479 21.1755 112.229 20.9366L111.527 21.6729C111.96 22.0847 112.483 22.3011 113.074 22.3011V21.2844ZM112.246 20.9542C112.007 20.7033 111.898 20.429 111.898 20.1091H110.882C110.882 20.7002 111.098 21.2229 111.51 21.6553L112.246 20.9542ZM111.898 20.1091C111.898 19.7683 112.01 19.5003 112.237 19.2729L111.519 18.554C111.095 18.9773 110.882 19.5063 110.882 20.1091H111.898ZM112.237 19.2729C112.49 19.0202 112.762 18.9094 113.074 18.9094V17.8927C112.475 17.8927 111.949 18.1235 111.519 18.554L112.237 19.2729ZM113.074 18.9094C113.406 18.9094 113.672 19.0232 113.901 19.264L114.637 18.5629C114.216 18.1205 113.685 17.8927 113.074 17.8927V18.9094ZM113.91 19.2729C114.137 19.5003 114.249 19.7683 114.249 20.1091H115.266C115.266 19.5063 115.052 18.9773 114.629 18.554L113.91 19.2729ZM114.249 20.1091C114.249 20.429 114.14 20.7033 113.901 20.9542L114.637 21.6553C115.049 21.2229 115.266 20.7002 115.266 20.1091H114.249ZM113.91 20.9453C113.682 21.1726 113.414 21.2844 113.074 21.2844V22.3011C113.676 22.3011 114.205 22.0875 114.629 21.6642L113.91 20.9453ZM120.742 20.6215L120.482 21.0581L120.49 21.0629L120.742 20.6215ZM118.351 18.2058L117.907 18.4528L117.911 18.4611L118.351 18.2058ZM118.351 11.2272L117.907 10.9803L117.907 10.9803L118.351 11.2272ZM120.694 8.83589L120.947 9.27685L120.952 9.27369L120.694 8.83589ZM126.745 8.51868L126.529 8.97893L126.537 8.98244L126.745 8.51868ZM128.892 10.1535L128.508 10.4865L128.51 10.4883L128.892 10.1535ZM129.136 10.9588L128.641 10.8423L128.641 10.8423L129.136 10.9588ZM128.599 11.6908L128.895 12.1045L128.897 12.1029L128.599 11.6908ZM127.843 11.8616L127.727 12.3564L127.741 12.3597L127.755 12.3622L127.843 11.8616ZM127.087 11.4224L126.717 11.771L126.722 11.7765L126.727 11.7818L127.087 11.4224ZM121.914 10.7392L122.172 11.1771L122.18 11.1721L121.914 10.7392ZM120.425 12.3252L120.875 12.5611L120.875 12.5611L120.425 12.3252ZM120.425 17.0834L119.975 17.3193L119.979 17.3276L120.425 17.0834ZM121.962 18.7182L121.693 19.1494L121.701 19.1542L121.962 18.7182ZM125.72 19.1087L125.87 19.5947L125.881 19.5909L125.72 19.1087ZM126.916 18.4498L126.595 18.0553L126.594 18.0564L126.916 18.4498ZM127.721 18.1082L127.751 18.6157L127.766 18.6148L127.78 18.6131L127.721 18.1082ZM128.453 18.3278L128.125 18.7159L128.13 18.7202L128.453 18.3278ZM128.917 19.1087L128.411 19.1648L128.412 19.1681L128.917 19.1087ZM128.624 19.8651L128.97 20.2372L128.977 20.231L128.983 20.2245L128.624 19.8651ZM124.232 20.9916C123.009 20.9916 121.935 20.7175 120.995 20.1801L120.49 21.0629C121.599 21.6968 122.851 22.0083 124.232 22.0083V20.9916ZM121.003 20.185C120.068 19.627 119.333 18.8839 118.791 17.9506L117.911 18.4611C118.541 19.5449 119.4 20.4122 120.482 21.058L121.003 20.185ZM118.795 17.959C118.272 17.0167 118.005 15.9481 118.005 14.7409H116.989C116.989 16.1039 117.291 17.3452 117.907 18.4527L118.795 17.959ZM118.005 14.7409C118.005 13.4988 118.273 12.4144 118.795 11.4741L117.907 10.9803C117.29 12.0896 116.989 13.3478 116.989 14.7409H118.005ZM118.795 11.4741C119.321 10.528 120.037 9.79893 120.947 9.27682L120.441 8.39496C119.366 9.01156 118.52 9.87667 117.907 10.9803L118.795 11.4741ZM120.952 9.27369C121.857 8.73943 122.905 8.46581 124.11 8.46581V7.44911C122.744 7.44911 121.515 7.76111 120.435 8.3981L120.952 9.27369ZM124.11 8.46581C125.002 8.46581 125.805 8.63921 126.529 8.97886L126.961 8.0585C126.09 7.64986 125.137 7.44911 124.11 7.44911V8.46581ZM126.537 8.98244C127.259 9.30687 127.917 9.80421 128.508 10.4865L129.276 9.8206C128.599 9.03882 127.825 8.44625 126.953 8.05493L126.537 8.98244ZM128.51 10.4883C128.656 10.6554 128.661 10.761 128.641 10.8423L129.631 11.0752C129.742 10.6034 129.584 10.1722 129.275 9.81879L128.51 10.4883ZM128.641 10.8423C128.611 10.9703 128.523 11.1188 128.302 11.2787L128.897 12.1029C129.261 11.8398 129.531 11.5003 129.631 11.0752L128.641 10.8423ZM128.304 11.2771C128.188 11.3602 128.074 11.3862 127.931 11.361L127.755 12.3622C128.165 12.4347 128.556 12.3468 128.895 12.1045L128.304 11.2771ZM127.959 11.3668C127.787 11.3261 127.616 11.233 127.446 11.0629L126.727 11.7818C127.013 12.0673 127.346 12.2669 127.727 12.3564L127.959 11.3668ZM127.457 11.0738C126.561 10.1234 125.434 9.64519 124.11 9.64519V10.6619C125.161 10.6619 126.018 11.0295 126.717 11.771L127.457 11.0738ZM124.11 9.64519C123.197 9.64519 122.371 9.86103 121.647 10.3062L122.18 11.1721C122.725 10.8365 123.363 10.6619 124.11 10.6619V9.64519ZM121.655 10.3013C120.935 10.7259 120.374 11.3263 119.975 12.0893L120.875 12.5611C121.192 11.9576 121.623 11.5007 122.172 11.177L121.655 10.3013ZM119.975 12.0893C119.572 12.8587 119.38 13.748 119.38 14.7409H120.397C120.397 13.8793 120.563 13.1582 120.875 12.5611L119.975 12.0893ZM119.38 14.7409C119.38 15.69 119.574 16.5537 119.975 17.3193L120.875 16.8475C120.561 16.2466 120.397 15.5487 120.397 14.7409H119.38ZM119.979 17.3276C120.395 18.086 120.967 18.6958 121.693 19.1493L122.232 18.2872C121.656 17.9274 121.204 17.4473 120.871 16.8392L119.979 17.3276ZM121.701 19.1542C122.441 19.5982 123.29 19.8122 124.232 19.8122V18.7955C123.449 18.7955 122.785 18.6192 122.224 18.2823L121.701 19.1542ZM124.232 19.8122C124.838 19.8122 125.387 19.7431 125.87 19.5945L125.571 18.6228C125.208 18.7345 124.764 18.7955 124.232 18.7955V19.8122ZM125.881 19.5909C126.379 19.425 126.832 19.1753 127.238 18.8433L126.594 18.0564C126.284 18.31 125.94 18.4995 125.559 18.6264L125.881 19.5909ZM127.236 18.8444C127.432 18.6856 127.601 18.6245 127.751 18.6157L127.691 17.6008C127.287 17.6245 126.92 17.7911 126.595 18.0553L127.236 18.8444ZM127.78 18.6131C127.918 18.5969 128.021 18.6285 128.125 18.7159L128.781 17.9398C128.462 17.6693 128.077 17.5545 127.662 17.6034L127.78 18.6131ZM128.13 18.7202C128.328 18.8831 128.397 19.0309 128.411 19.1648L129.422 19.0525C129.372 18.6009 129.131 18.228 128.776 17.9354L128.13 18.7202ZM128.412 19.1681C128.423 19.2647 128.402 19.3685 128.264 19.5056L128.983 20.2245C129.302 19.9062 129.475 19.5057 129.422 19.0493L128.412 19.1681ZM128.278 19.4929C127.21 20.4864 125.874 20.9916 124.232 20.9916V22.0083C126.103 22.0083 127.695 21.4236 128.97 20.2372L128.278 19.4929ZM135.397 20.6459L135.142 21.0856L135.147 21.0886L135.397 20.6459ZM133.006 18.2546L132.561 18.5016L132.566 18.5099L133.006 18.2546ZM133.006 11.2272L132.565 10.975L132.563 10.9773L133.006 11.2272ZM135.397 8.83589L135.647 9.27861L135.652 9.27551L135.397 8.83589ZM142.351 8.83589L142.096 9.27554L142.102 9.27858L142.351 8.83589ZM144.718 11.2272L144.274 11.4741L144.279 11.4824L144.718 11.2272ZM144.743 18.2546L145.185 18.5045L145.187 18.5015L144.743 18.2546ZM142.376 20.6459L142.626 21.0886L142.631 21.0855L142.376 20.6459ZM141.131 18.7182L140.87 18.2823L140.87 18.2823L141.131 18.7182ZM142.644 17.1078L142.198 16.8636L142.194 16.8719L142.644 17.1078ZM142.644 12.374L142.192 12.6056L142.195 12.6119L142.198 12.6182L142.644 12.374ZM141.131 10.7392L140.87 11.1751L140.87 11.1751L141.131 10.7392ZM136.642 10.7392L136.903 11.1751L136.903 11.1751L136.642 10.7392ZM135.104 12.374L135.55 12.6182L135.553 12.6138L135.104 12.374ZM135.104 17.1078L135.55 16.8636L135.55 16.8636L135.104 17.1078ZM136.642 18.7182L136.38 19.1542L136.38 19.1542L136.642 18.7182ZM138.887 20.9916C137.644 20.9916 136.569 20.7239 135.647 20.2032L135.147 21.0886C136.242 21.7066 137.494 22.0083 138.887 22.0083V20.9916ZM135.652 20.2063C134.72 19.6651 133.987 18.9315 133.446 17.9994L132.566 18.5099C133.196 19.5949 134.057 20.4555 135.142 21.0855L135.652 20.2063ZM133.45 18.0078C132.928 17.0674 132.66 15.9831 132.66 14.7409H131.644C131.644 16.1341 131.945 17.3922 132.562 18.5015L133.45 18.0078ZM132.66 14.7409C132.66 13.4811 132.928 12.3985 133.449 11.4771L132.563 10.9773C131.945 12.073 131.644 13.3329 131.644 14.7409H132.66ZM133.447 11.4794C133.988 10.5325 134.72 9.80197 135.647 9.27858L135.147 8.39321C134.057 9.00853 133.195 9.87214 132.565 10.975L133.447 11.4794ZM135.652 9.27551C136.574 8.74052 137.647 8.46581 138.887 8.46581V7.44911C137.491 7.44911 136.238 7.76003 135.142 8.39628L135.652 9.27551ZM138.887 8.46581C140.109 8.46581 141.174 8.73996 142.096 9.27551L142.607 8.39628C141.512 7.76058 140.267 7.44911 138.887 7.44911V8.46581ZM142.102 9.27858C143.027 9.80125 143.75 10.5301 144.274 11.4741L145.163 10.9803C144.548 9.87457 143.693 9.00924 142.601 8.39321L142.102 9.27858ZM144.279 11.4824C144.813 12.4029 145.088 13.4836 145.088 14.7409H146.105C146.105 13.3304 145.795 12.0686 145.158 10.9719L144.279 11.4824ZM145.088 14.7409C145.088 15.9831 144.821 17.0674 144.298 18.0078L145.187 18.5015C145.803 17.3922 146.105 16.1341 146.105 14.7409H145.088ZM144.3 18.0047C143.775 18.9339 143.051 19.6658 142.121 20.2063L142.631 21.0855C143.717 20.4548 144.571 19.5925 145.185 18.5045L144.3 18.0047ZM142.126 20.2032C141.204 20.7239 140.129 20.9916 138.887 20.9916V22.0083C140.279 22.0083 141.531 21.7066 142.626 21.0886L142.126 20.2032ZM138.887 19.8122C139.814 19.8122 140.654 19.5973 141.393 19.1542L140.87 18.2823C140.307 18.6201 139.651 18.7955 138.887 18.7955V19.8122ZM141.393 19.1542C142.125 18.7149 142.694 18.1082 143.095 17.3437L142.194 16.8719C141.879 17.4738 141.439 17.9408 140.87 18.2823L141.393 19.1542ZM143.09 17.352C143.511 16.5834 143.714 15.7081 143.714 14.7409H142.697C142.697 15.5631 142.526 16.2657 142.198 16.8636L143.09 17.352ZM143.714 14.7409C143.714 13.7737 143.511 12.8984 143.09 12.1299L142.198 12.6182C142.526 13.2161 142.697 13.9187 142.697 14.7409H143.714ZM143.097 12.1425C142.697 11.3615 142.128 10.7444 141.393 10.3033L140.87 11.1751C141.436 11.5148 141.876 11.9876 142.192 12.6056L143.097 12.1425ZM141.393 10.3033C140.654 9.86015 139.814 9.64519 138.887 9.64519V10.6619C139.651 10.6619 140.307 10.8373 140.87 11.1751L141.393 10.3033ZM138.887 9.64519C137.959 9.64519 137.119 9.86015 136.38 10.3033L136.903 11.1751C137.466 10.8373 138.122 10.6619 138.887 10.6619V9.64519ZM136.38 10.3033C135.647 10.7432 135.072 11.3575 134.656 12.1343L135.553 12.6138C135.885 11.9915 136.335 11.516 136.903 11.1751L136.38 10.3033ZM134.659 12.1299C134.238 12.8984 134.035 13.7737 134.035 14.7409H135.052C135.052 13.9187 135.223 13.2161 135.55 12.6182L134.659 12.1299ZM134.035 14.7409C134.035 15.7081 134.238 16.5834 134.659 17.352L135.55 16.8636C135.223 16.2657 135.052 15.5631 135.052 14.7409H134.035ZM134.659 17.352C135.075 18.1121 135.65 18.716 136.38 19.1542L136.903 18.2823C136.332 17.9396 135.882 17.4699 135.55 16.8636L134.659 17.352ZM136.38 19.1542C137.119 19.5973 137.959 19.8122 138.887 19.8122V18.7955C138.122 18.7955 137.466 18.6201 136.903 18.2823L136.38 19.1542Z" fill="white" mask="url(#path-5-outside-2_4042_3791)"/>
<defs>
<linearGradient id="paint0_linear_4042_3791" x1="2.69141" y1="2.91113" x2="14.4207" y2="37.2093" gradientUnits="userSpaceOnUse">
<stop stop-color="#AD6DFF"/>
<stop offset="1" stop-color="#FF019A"/>
</linearGradient>
<linearGradient id="paint1_linear_4042_3791" x1="2.69141" y1="2.91113" x2="14.4207" y2="37.2093" gradientUnits="userSpaceOnUse">
<stop stop-color="#AD6DFF"/>
<stop offset="1" stop-color="#FF019A"/>
</linearGradient>
<linearGradient id="paint2_linear_4042_3791" x1="15.2305" y1="6.98877" x2="32.3389" y2="21.8161" gradientUnits="userSpaceOnUse">
<stop stop-color="#AD6DFF"/>
<stop offset="1" stop-color="#FF019A"/>
</linearGradient>
</defs>
</svg>
